<?xml version="1.0" encoding="utf-8"?>
<!-- Generator: Adobe Illustrator 19.0.0, SVG Export Plug-In . SVG Version: 6.00 Build 0)  -->
<svg version="1.1" id="Layer_1" xmlns="http://www.w3.org/2000/svg" xmlns:xlink="http://www.w3.org/1999/xlink" x="0px" y="0px"
	 viewBox="0 0 254.7 111.1" style="enable-background:new 0 0 254.7 111.1;" xml:space="preserve">
<style type="text/css">
	.st0{fill:none;stroke:#231F20;stroke-linecap:round;stroke-linejoin:round;stroke-miterlimit:10;}
	.st1{fill:none;stroke:#231F20;stroke-linecap:square;stroke-linejoin:round;stroke-miterlimit:10;}
	.st2{fill:none;stroke:#231F20;stroke-linecap:round;stroke-linejoin:round;}
	.st3{fill:#231F20;}
	.st4{font-family:'MyriadPro-Regular';}
	.st5{font-size:6.48px;}
</style>
<path id="XMLID_15_" class="st0" d="M185.6,20c0.6,0,1.1,0,1.7,0c0.5,0,1.1,0,1.6,0c0.5-1.6,1.1-3.2,1.6-4.8
	c1.1,3.2,2.2,6.5,3.2,9.7c1.1-3.3,2.2-6.5,3.3-9.8c1.1,3.2,2.1,6.4,3.2,9.7c1.1-3.2,2.2-6.5,3.2-9.7c1.1,3.3,2.2,6.5,3.3,9.8
	c0.5-1.6,1.1-3.2,1.6-4.8c1.1,0,2.1,0,3.2,0l20.8-0.1l0.1,28.3c0,1.1,0,2.1,0,3.2c1.6,0.5,3.2,1.1,4.8,1.6c-3.3,1.1-6.5,2.2-9.8,3.3
	c3.2,1.1,6.5,2.2,9.7,3.2c-3.2,1.1-6.4,2.1-9.7,3.2c3.3,1.1,6.5,2.2,9.8,3.3c-3.2,1.1-6.5,2.2-9.7,3.2c1.6,0.5,3.2,1.1,4.8,1.6
	c0,0.5,0,1.1,0,1.6c0,0.6,0,1.1,0,1.7v28.5H34.9V91c0-1.4,0-2.8,0-4.3"/>
<path id="XMLID_19_" class="st0" d="M35,68.4c4.9,0.1,9,4.1,9,9c0,5-4.1,9.2-9.1,9.1c-4.9,0-9.1-4.1-9.1-9.1
	C25.7,72.5,30,68.4,35,68.4z"/>
<path id="XMLID_18_" class="st1" d="M33.1,73.2c1.2,0,2.4,0,3.6,0"/>
<path id="XMLID_17_" class="st1" d="M33.1,82.6c1.2,0,2.4,0,3.6,0"/>
<path id="XMLID_16_" class="st1" d="M34.9,71.4c0,1.2,0,2.4,0,3.6"/>
<path id="XMLID_12_" class="st0" d="M34.9,68.4c0-1.6,0-3.2,0-4.8l-0.1-5c0-1.1,0-2.1,0-3.2c-1.6-0.5-3.2-1.1-4.8-1.6
	c3.3-1.1,6.5-2.2,9.8-3.3c-3.2-1.1-6.5-2.2-9.7-3.2c3.2-1.1,6.4-2.1,9.7-3.2c-3.3-1.1-6.5-2.2-9.8-3.3c3.2-1.1,6.5-2.2,9.7-3.2
	c-1.6-0.5-3.2-1.1-4.8-1.6c0-0.5,0-1.1,0-1.6c0-0.6,0-1.1,0-1.7V20h150.7"/>
<path id="XMLID_31_" class="st0" d="M79.6,52.3c-4.9-0.1-9-4.1-9-9c0-5,4.1-9.2,9.1-9.1c4.9,0,9.1,4.1,9.1,9.1
	C88.8,48.2,84.6,52.4,79.6,52.3z"/>
<path id="XMLID_30_" class="st1" d="M81.5,47.5c-1.2,0-2.4,0-3.6,0"/>
<path id="XMLID_29_" class="st1" d="M81.5,38.1c-1.2,0-2.4,0-3.6,0"/>
<path id="XMLID_28_" class="st1" d="M79.7,49.3c0-1.2,0-2.4,0-3.6"/>
<path id="XMLID_20_" class="st0" d="M79.7,52.3c0,1.6,0,3.2,0,4.8l0,8.6c0,0.6,0,1.1,0,1.7c0,0.5,0,1.1,0,1.6
	c1.6,0.5,3.2,1.1,4.8,1.6c-3.2,1.1-6.5,2.2-9.7,3.2c3.3,1.1,6.5,2.2,9.8,3.3c-3.2,1.1-6.4,2.1-9.7,3.2c3.2,1.1,6.5,2.2,9.7,3.2
	c-3.3,1.1-6.5,2.2-9.8,3.3c1.6,0.5,3.2,1.1,4.8,1.6c0,1.1,0,2.1,0,3.2l0.1,11.2"/>
<g id="XMLID_33_">
	<path id="XMLID_42_" class="st0" d="M124.6,52.2c4.9,0.1,9,4.1,9,9c0,5-4.1,9.2-9.1,9.1c-4.9,0-9.1-4.1-9.1-9.1
		C115.4,56.3,119.6,52.2,124.6,52.2z"/>
	<path id="XMLID_27_" class="st0" d="M124.5,20v27.4c0,1.6,0,3.2,0,4.8"/>
	<path id="XMLID_26_" class="st0" d="M124.5,70.5c0,1.4,0,2.8,0,4.3v28"/>
	<g id="XMLID_34_">
		<g id="XMLID_36_">
			<line id="XMLID_39_" class="st2" x1="124.5" y1="66.4" x2="124.5" y2="57.8"/>
			<g id="XMLID_37_">
				<polygon id="XMLID_38_" class="st3" points="126.7,58.5 124.5,54.6 122.2,58.5 				"/>
			</g>
		</g>
	</g>
</g>
<path id="XMLID_45_" class="st0" d="M79.7,20l0,9.7c0,1.4,0,2.8,0,4.3"/>
<path id="XMLID_32_" class="st0" d="M160.6,20l0.1,27.7c0,1.1,0,2.1,0,3.2c1.6,0.5,3.2,1.1,4.8,1.6c-3.3,1.1-6.5,2.2-9.8,3.3
	c3.2,1.1,6.5,2.2,9.7,3.2c-3.2,1.1-6.4,2.1-9.7,3.2c3.3,1.1,6.5,2.2,9.8,3.3c-3.2,1.1-6.5,2.2-9.7,3.2c1.6,0.5,3.2,1.1,4.8,1.6
	c0,0.5,0,1.1,0,1.6c0,0.6,0,1.1,0,1.7l0,29.1"/>
<text transform="matrix(1 0 0 1 241.8143 63.6385)" class="st4 st5">V</text>
<text transform="matrix(0.583 0 0 0.583 245.43 65.7963)" class="st4 st5">1</text>
<text transform="matrix(1 0 0 1 241.8143 63.6387)" class="st4 st5">V</text>
<text transform="matrix(0.583 0 0 0.583 245.43 65.7964)" class="st4 st5">1</text>
<text id="XMLID_51_" transform="matrix(1 0 0 1 8.4628 79.5444)" class="st4 st5">120 V</text>
<text id="XMLID_46_" transform="matrix(1 0 0 1 56.2129 45.2089)" class="st4 st5">60 V</text>
<text id="XMLID_57_" transform="matrix(1 0 0 1 215.3794 63.6385)" class="st4 st5">8 Ω</text>
<text id="XMLID_56_" transform="matrix(1 0 0 1 190.1295 12.4094)" class="st4 st5">1.6 Ω</text>
<text id="XMLID_55_" transform="matrix(1 0 0 1 144.1295 62.252)" class="st4 st5">6 Ω</text>
<text id="XMLID_49_" transform="matrix(1 0 0 1 61.8794 80.252)" class="st4 st5">5 Ω</text>
<text id="XMLID_50_" transform="matrix(1 0 0 1 14.3795 46.6904)" class="st4 st5">20 Ω</text>
<text id="XMLID_54_" transform="matrix(1 0 0 1 100.9309 62.252)" class="st4 st5">36 A</text>
</svg>
