<?xml version="1.0" encoding="utf-8"?>
<!-- Generator: Adobe Illustrator 19.0.0, SVG Export Plug-In . SVG Version: 6.00 Build 0)  -->
<svg version="1.1" id="Layer_1" xmlns="http://www.w3.org/2000/svg" xmlns:xlink="http://www.w3.org/1999/xlink" x="0px" y="0px"
	 viewBox="0 0 275.2 108.5" style="enable-background:new 0 0 275.2 108.5;" xml:space="preserve">
<style type="text/css">
	.st0{fill:none;stroke:#231F20;stroke-linecap:round;stroke-linejoin:round;stroke-miterlimit:10;}
	.st1{fill:none;stroke:#231F20;stroke-linecap:round;stroke-linejoin:round;}
	.st2{fill:#231F20;}
	.st3{font-family:'MyriadPro-Regular';}
	.st4{font-size:6.48px;}
</style>
<g id="XMLID_24_">
	<g id="XMLID_63_">
		<path id="XMLID_76_" class="st0" d="M84,69.4c-4.9-0.1-9-4.1-9-9c0-5,4.1-9.2,9.1-9.1c4.9,0,9.1,4.1,9.1,9.1
			C93.2,65.4,89,69.5,84,69.4z"/>
		<path id="XMLID_70_" class="st0" d="M84.1,69.5c0,1.6,0,3.2,0,4.8v26.2"/>
		<path id="XMLID_69_" class="st0" d="M84.1,51.1c0-1.4,0-2.8,0-4.3V18.3"/>
		<g id="XMLID_68_">
			<g id="XMLID_107_">
				<line id="XMLID_110_" class="st1" x1="84.1" y1="55.2" x2="84.1" y2="63.8"/>
				<g id="XMLID_108_">
					<polygon id="XMLID_109_" class="st2" points="81.9,63.1 84.1,67 86.4,63.1 					"/>
				</g>
			</g>
		</g>
	</g>
	<g id="XMLID_22_">
		<path id="XMLID_95_" class="st0" d="M27.2,50c4.9,0.1,9,4.1,9,9c0,5-4.1,9.2-9.1,9.1C22.1,68.1,18,64,18,59
			C18,54,22.2,49.9,27.2,50z"/>
		<path id="XMLID_94_" class="st0" d="M27.1,49.9c0-1.6,0-3.2,0-4.8"/>
		<path id="XMLID_89_" class="st0" d="M27.1,68.3c0,1.4,0,2.8,0,4.3V101h30"/>
		<g id="XMLID_23_">
			<g id="XMLID_102_">
				<line id="XMLID_105_" class="st1" x1="27.1" y1="64.1" x2="27.1" y2="55.6"/>
				<g id="XMLID_103_">
					<polygon id="XMLID_104_" class="st2" points="29.4,56.2 27.1,52.3 24.9,56.2 					"/>
				</g>
			</g>
		</g>
	</g>
	<text id="XMLID_72_" transform="matrix(1 0 0 1 98.8025 49.8432)" class="st3 st4">5 Ω</text>
	<text id="XMLID_71_" transform="matrix(1 0 0 1 42.1135 49.802)" class="st3 st4">20 Ω</text>
	<text id="XMLID_73_" transform="matrix(1 0 0 1 5.5207 59.361)" class="st3 st4">6 A</text>
	<text id="XMLID_74_" transform="matrix(1 0 0 1 69.8541 49.802)" class="st3 st4">12 A</text>
	<g id="XMLID_78_">
		<path id="XMLID_98_" class="st0" d="M146.8,49.8c4.9,0.1,9,4.1,9,9c0,5-4.1,9.2-9.1,9.1c-4.9,0-9.1-4.1-9.1-9.1
			C137.6,53.9,141.9,49.8,146.8,49.8z"/>
		<path id="XMLID_97_" class="st0" d="M146.7,18.3v26.7c0,1.6,0,3.2,0,4.8"/>
		<path id="XMLID_96_" class="st0" d="M146.7,68.1c0,1.4,0,2.8,0,4.3v28"/>
		<g id="XMLID_79_">
			<g id="XMLID_85_">
				<line id="XMLID_100_" class="st1" x1="146.7" y1="64" x2="146.7" y2="55.5"/>
				<g id="XMLID_86_">
					<polygon id="XMLID_99_" class="st2" points="149,56.1 146.7,52.2 144.5,56.1 					"/>
				</g>
			</g>
		</g>
	</g>
	<text id="XMLID_77_" transform="matrix(1 0 0 1 123.1872 59.8863)" class="st3 st4">36 A</text>
	<path id="XMLID_21_" class="st0" d="M57.1,85c0,1.4,0,2.8,0,4.3l0,11.8h197.5V72.5c0-0.6,0-1.1,0-1.7c0-0.5,0-1.1,0-1.6
		c-1.6-0.5-3.2-1.1-4.8-1.6c3.2-1.1,6.5-2.2,9.7-3.2c-3.3-1.1-6.5-2.2-9.8-3.3c3.2-1.1,6.4-2.1,9.7-3.2c-3.2-1.1-6.5-2.2-9.7-3.2
		c3.3-1.1,6.5-2.2,9.8-3.3c-1.6-0.5-3.2-1.1-4.8-1.6c0-1.1,0-2.1,0-3.2l-0.1-28.3l-20.8,0.1c-1.1,0-2.1,0-3.2,0
		c-0.5,1.6-1.1,3.2-1.6,4.8c-1.1-3.3-2.2-6.5-3.3-9.8c-1.1,3.2-2.2,6.5-3.2,9.7c-1.1-3.2-2.1-6.4-3.2-9.7c-1.1,3.3-2.2,6.5-3.3,9.8
		c-1.1-3.2-2.2-6.5-3.2-9.7c-0.5,1.6-1.1,3.2-1.6,4.8c-0.5,0-1.1,0-1.6,0c-0.6,0-1.1,0-1.7,0H27.1v26.8"/>
	<path id="XMLID_67_" class="st0" d="M182.8,18.3l0.1,27.7c0,1.1,0,2.1,0,3.2c1.6,0.5,3.2,1.1,4.8,1.6c-3.3,1.1-6.5,2.2-9.8,3.3
		c3.2,1.1,6.5,2.2,9.7,3.2c-3.2,1.1-6.4,2.1-9.7,3.2c3.3,1.1,6.5,2.2,9.8,3.3c-3.2,1.1-6.5,2.2-9.7,3.2c1.6,0.5,3.2,1.1,4.8,1.6
		c0,0.5,0,1.1,0,1.6c0,0.6,0,1.1,0,1.7l0,29.1"/>
	<text transform="matrix(1 0 0 1 264.0707 61.9291)" class="st3 st4">V</text>
	<text transform="matrix(0.583 0 0 0.583 267.6865 64.0869)" class="st3 st4">1</text>
	<text transform="matrix(1 0 0 1 264.0707 61.9293)" class="st3 st4">V</text>
	<text transform="matrix(0.583 0 0 0.583 267.6864 64.087)" class="st3 st4">1</text>
	<text id="XMLID_62_" transform="matrix(1 0 0 1 237.6359 61.9291)" class="st3 st4">8 Ω</text>
	<text id="XMLID_61_" transform="matrix(1 0 0 1 212.3859 10.7)" class="st3 st4">1.6 Ω</text>
	<text id="XMLID_60_" transform="matrix(1 0 0 1 166.3859 60.5426)" class="st3 st4">6 Ω</text>
	<path id="XMLID_87_" class="st0" d="M57.1,86.4L57.1,72c0-1.1,0-2.1,0-3.2c-1.6-0.5-3.2-1.1-4.8-1.6c3.3-1.1,6.5-2.2,9.8-3.3
		c-3.2-1.1-6.5-2.2-9.7-3.2c3.2-1.1,6.4-2.1,9.7-3.2c-3.3-1.1-6.5-2.2-9.8-3.3c3.2-1.1,6.5-2.2,9.7-3.2c-1.6-0.5-3.2-1.1-4.8-1.6
		c0-0.5,0-1.1,0-1.6c0-0.6,0-1.1,0-1.7V18.3"/>
	<path id="XMLID_59_" class="st0" d="M111.1,18.3v27.7c0,0.6,0,1.1,0,1.7c0,0.5,0,1.1,0,1.6c1.6,0.5,3.2,1.1,4.8,1.6
		c-3.2,1.1-6.5,2.2-9.7,3.2c3.3,1.1,6.5,2.2,9.8,3.3c-3.2,1.1-6.4,2.1-9.7,3.2c3.2,1.1,6.5,2.2,9.7,3.2c-3.3,1.1-6.5,2.2-9.8,3.3
		c1.6,0.5,3.2,1.1,4.8,1.6c0,1.1,0,2.1,0,3.2l0.1,14.4v14"/>
</g>
</svg>
