<?xml version="1.0" encoding="utf-8"?>
<!-- Generator: Adobe Illustrator 19.0.0, SVG Export Plug-In . SVG Version: 6.00 Build 0)  -->
<svg version="1.1" id="Layer_1" xmlns="http://www.w3.org/2000/svg" xmlns:xlink="http://www.w3.org/1999/xlink" x="0px" y="0px"
	 viewBox="0 0 297.4 115.4" style="enable-background:new 0 0 297.4 115.4;" xml:space="preserve">
<style type="text/css">
	.st0{fill:none;stroke:#231F20;stroke-linecap:round;stroke-linejoin:round;stroke-miterlimit:10;}
	.st1{fill:none;stroke:#231F20;stroke-linecap:square;stroke-linejoin:round;stroke-miterlimit:10;}
	.st2{font-family:'MyriadPro-Regular';}
	.st3{font-size:6.48px;}
	.st4{fill:none;stroke:#231F20;stroke-linecap:round;stroke-linejoin:round;}
	.st5{fill:#231F20;}
	.st6{fill:none;stroke:#231F20;stroke-miterlimit:10;}
</style>
<g id="XMLID_75_">
	<path id="XMLID_133_" class="st0" d="M203,66.6c4.9,0.1,9,4.1,9,9c0,5-4.1,9.2-9.1,9.1c-4.9,0-9.1-4.1-9.1-9.1
		C193.7,70.6,198,66.5,203,66.6z"/>
	<path id="XMLID_132_" class="st1" d="M201.1,71.4c1.2,0,2.4,0,3.6,0"/>
	<path id="XMLID_131_" class="st1" d="M201.1,80.8c1.2,0,2.4,0,3.6,0"/>
	<path id="XMLID_130_" class="st1" d="M202.9,69.6c0,1.2,0,2.4,0,3.6"/>
	<path id="XMLID_134_" class="st0" d="M202.9,20.6v13c0,0.6,0,1.1,0,1.7c0,0.5,0,1.1,0,1.6c1.6,0.5,3.2,1.1,4.8,1.6
		c-3.2,1.1-6.5,2.2-9.7,3.2c3.3,1.1,6.5,2.2,9.8,3.3c-3.2,1.1-6.4,2.1-9.7,3.2c3.2,1.1,6.5,2.2,9.7,3.2c-3.3,1.1-6.5,2.2-9.8,3.3
		c1.6,0.5,3.2,1.1,4.8,1.6c0,1.1,0,2.1,0,3.2l0.1,2.3c0,1.6,0,3.2,0,4.8"/>
	<path id="XMLID_136_" class="st0" d="M202.9,20.6h25c0.5,0,1.1,0,1.6,0c0.5,0,1.1,0,1.6,0c0.5-1.6,1.1-3.2,1.6-4.8
		c1.1,3.3,2.2,6.5,3.2,9.7c1.1-3.3,2.2-6.5,3.3-9.8c1.1,3.2,2.2,6.4,3.2,9.7c1.1-3.2,2.1-6.5,3.2-9.7c1.1,3.3,2.2,6.5,3.3,9.8
		c0.5-1.6,1.1-3.2,1.6-4.8c1.1,0,2.2,0,3.2,0l20.8-0.1l0,28.3c0,1.1,0,2.2,0,3.2c1.6,0.5,3.2,1.1,4.8,1.6c-3.3,1.1-6.5,2.2-9.8,3.3
		c3.2,1.1,6.5,2.2,9.7,3.2c-3.2,1.1-6.4,2.2-9.7,3.2c3.3,1.1,6.5,2.2,9.8,3.3c-3.2,1.1-6.5,2.2-9.7,3.3c1.6,0.5,3.2,1.1,4.8,1.6
		c0,0.5,0,1.1,0,1.6c0,0.5,0,1.1,0,1.6v28.5h-71.8V89.1c0-1.4,0-2.8,0-4.3"/>
</g>
<text id="XMLID_64_" transform="matrix(1 0 0 1 178.8518 77.0687)" class="st2 st3">72 V</text>
<g id="XMLID_115_">
	<path id="XMLID_124_" class="st0" d="M33.8,52.1c4.9,0.1,9,4.1,9,9c0,5-4.1,9.2-9.1,9.1c-4.9,0-9.1-4.1-9.1-9.1
		C24.6,56.1,28.8,52,33.8,52.1z"/>
	<path id="XMLID_123_" class="st0" d="M33.7,20.6v26.7c0,1.6,0,3.2,0,4.8"/>
	<path id="XMLID_25_" class="st0" d="M69.8,20.6l0.1,27.7c0,1.1,0,2.1,0,3.2c1.6,0.5,3.2,1.1,4.8,1.6c-3.3,1.1-6.5,2.2-9.8,3.3
		c3.2,1.1,6.5,2.2,9.7,3.2c-3.2,1.1-6.4,2.1-9.7,3.2c3.3,1.1,6.5,2.2,9.8,3.3c-3.2,1.1-6.5,2.2-9.7,3.2c1.6,0.5,3.2,1.1,4.8,1.6
		c0,0.5,0,1.1,0,1.6c0,0.6,0,1.1,0,1.7l0,29.1l-36.1-0.7v-28c0-1.4,0-2.8,0-4.3"/>
	<g id="XMLID_116_">
		<g id="XMLID_86_">
			<line id="XMLID_91_" class="st4" x1="33.7" y1="66.3" x2="33.7" y2="57.7"/>
			<g id="XMLID_88_">
				<polygon id="XMLID_90_" class="st5" points="36,58.3 33.7,54.5 31.5,58.3 				"/>
			</g>
		</g>
	</g>
</g>
<text id="XMLID_114_" transform="matrix(1 0 0 1 10.1527 62.1171)" class="st2 st3">30 A</text>
<path id="XMLID_113_" class="st0" d="M69.8,103.3h71.8V74.8c0-0.6,0-1.1,0-1.7c0-0.5,0-1.1,0-1.6c-1.6-0.5-3.2-1.1-4.8-1.6
	c3.2-1.1,6.5-2.2,9.7-3.3c-3.3-1.1-6.5-2.2-9.8-3.3c3.2-1.1,6.4-2.1,9.7-3.2c-3.2-1.1-6.5-2.2-9.7-3.2c3.3-1.1,6.5-2.2,9.8-3.3
	c-1.6-0.5-3.2-1.1-4.8-1.6c0-1.1,0-2.2,0-3.2l-0.1-28.3l-20.8,0.1c-1.1,0-2.2,0-3.2,0c-0.5,1.6-1.1,3.2-1.6,4.8
	c-1.1-3.3-2.2-6.5-3.3-9.8c-1.1,3.2-2.2,6.5-3.2,9.7c-1.1-3.2-2.2-6.5-3.2-9.7c-1.1,3.3-2.2,6.5-3.3,9.8c-1.1-3.3-2.2-6.5-3.2-9.7
	c-0.5,1.6-1.1,3.2-1.6,4.8c-0.5,0-1.1,0-1.6,0c-0.6,0-1.1,0-1.7,0h-25H33.7"/>
<text transform="matrix(1 0 0 1 151.0363 64.1599)" class="st2 st3">V</text>
<text transform="matrix(0.583 0 0 0.583 154.652 66.3176)" class="st2 st3">1</text>
<text transform="matrix(1 0 0 1 151.0363 64.1601)" class="st2 st3">V</text>
<text transform="matrix(0.583 0 0 0.583 154.652 66.3178)" class="st2 st3">1</text>
<text id="XMLID_82_" transform="matrix(1 0 0 1 124.6014 64.1599)" class="st2 st3">8 Ω</text>
<text id="XMLID_81_" transform="matrix(1 0 0 1 99.3514 12.9307)" class="st2 st3">1.6 Ω</text>
<text id="XMLID_80_" transform="matrix(1 0 0 1 49.3514 62.7734)" class="st2 st3">2.4 Ω</text>
<text id="XMLID_84_" transform="matrix(1 0 0 1 180.3272 47.443)" class="st2 st3">2.4 Ω</text>
<text transform="matrix(1 0 0 1 284.0764 64.1595)" class="st2 st3">V</text>
<text transform="matrix(0.583 0 0 0.583 287.6921 66.3172)" class="st2 st3">1</text>
<text transform="matrix(1 0 0 1 284.0764 64.1597)" class="st2 st3">V</text>
<text transform="matrix(0.583 0 0 0.583 287.6921 66.3174)" class="st2 st3">1</text>
<text id="XMLID_38_" transform="matrix(1 0 0 1 257.6415 64.1595)" class="st2 st3">8 Ω</text>
<text id="XMLID_37_" transform="matrix(1 0 0 1 232.3916 12.9303)" class="st2 st3">1.6 Ω</text>
<g id="XMLID_36_">
	<g id="XMLID_145_">
		<line id="XMLID_148_" class="st6" x1="161.6" y1="61.1" x2="172.8" y2="61.1"/>
		<g id="XMLID_146_">
			<path id="XMLID_147_" class="st5" d="M178.9,61.1c-2.8,1.1-6.4,2.9-8.5,4.8l1.7-4.8l-1.7-4.8C172.5,58.3,176,60.1,178.9,61.1z"/>
		</g>
	</g>
</g>
</svg>
