<?xml version="1.0" encoding="utf-8"?>
<!-- Generator: Adobe Illustrator 19.0.0, SVG Export Plug-In . SVG Version: 6.00 Build 0)  -->
<svg version="1.1" id="Layer_1" xmlns="http://www.w3.org/2000/svg" xmlns:xlink="http://www.w3.org/1999/xlink" x="0px" y="0px"
	 viewBox="0 0 62.7 22.3" style="enable-background:new 0 0 62.7 22.3;" xml:space="preserve">
<style type="text/css">
	.st0{fill:none;stroke:#231F20;stroke-linecap:round;stroke-linejoin:round;stroke-miterlimit:10;}
	.st1{fill:none;stroke:#231F20;stroke-linecap:square;stroke-linejoin:round;stroke-miterlimit:10;}
	.st2{fill:none;stroke:#231F20;stroke-linecap:round;stroke-linejoin:round;}
	.st3{fill:#231F20;}
	.st4{font-family:'TimesNewRomanPSMT';}
	.st5{font-size:3px;}
	.st6{fill:none;stroke:#231F20;stroke-width:0.5;stroke-linecap:round;stroke-linejoin:round;}
	.st7{fill:none;stroke:#231F20;stroke-width:0.5;stroke-miterlimit:10;}
	.st8{fill:none;}
	.st9{fill:none;stroke:#231F20;stroke-width:0.25;stroke-miterlimit:10;}
</style>
<path id="XMLID_1_" class="st0" d="M-94-60.7c0.6,0,1.1,0,1.7,0c0.5,0,1.1,0,1.6,0c0.5-1.6,1.1-3.2,1.6-4.8c1.1,3.2,2.2,6.5,3.2,9.7
	c1.1-3.3,2.2-6.5,3.3-9.8c1.1,3.2,2.1,6.4,3.2,9.7c1.1-3.2,2.2-6.5,3.2-9.7c1.1,3.3,2.2,6.5,3.3,9.8c0.5-1.6,1.1-3.2,1.6-4.8
	c1.1,0,2.1,0,3.2,0"/>
<path id="XMLID_58_" class="st0" d="M-90.1,22.3c0,0.6,0,1.1,0,1.7c0,0.5,0,1.1,0,1.6c1.6,0.5,3.2,1.1,4.8,1.6
	c-3.2,1.1-6.5,2.2-9.7,3.2c3.3,1.1,6.5,2.2,9.8,3.3c-3.2,1.1-6.4,2.1-9.7,3.2c3.2,1.1,6.5,2.2,9.7,3.2c-3.3,1.1-6.5,2.2-9.8,3.3
	c1.6,0.5,3.2,1.1,4.8,1.6c0,1.1,0,2.1,0,3.2"/>
<g id="XMLID_24_">
	<path id="XMLID_3_" class="st0" d="M-95.9-24.2c4.9,0.1,9,4.1,9,9c0,5-4.1,9.2-9.1,9.1c-4.9,0-9.1-4.1-9.1-9.1
		C-105.1-20.1-100.9-24.2-95.9-24.2z"/>
	<path id="XMLID_4_" class="st1" d="M-97.8-19.3c1.2,0,2.4,0,3.6,0"/>
	<path id="XMLID_5_" class="st1" d="M-97.8-10c1.2,0,2.4,0,3.6,0"/>
	<path id="XMLID_6_" class="st1" d="M-96-21.1c0,1.2,0,2.4,0,3.6"/>
	<path id="XMLID_7_" class="st0" d="M-96-24.2c0-1.6,0-3.2,0-4.8"/>
	<path id="XMLID_8_" class="st0" d="M-96-5.9c0,1.4,0,2.8,0,4.3"/>
</g>
<g id="XMLID_2_">
	<path id="XMLID_14_" class="st0" d="M-67.9-43.1c4.9,0.1,9,4.1,9,9c0,5-4.1,9.2-9.1,9.1c-4.9,0-9.1-4.1-9.1-9.1
		C-77.1-39.1-72.9-43.2-67.9-43.1z"/>
	<path id="XMLID_10_" class="st0" d="M-68-43.2c0-1.6,0-3.2,0-4.8"/>
	<path id="XMLID_9_" class="st0" d="M-68-24.8c0,1.4,0,2.8,0,4.3"/>
	<g id="XMLID_11_">
		<g id="XMLID_63_">
			<line id="XMLID_66_" class="st2" x1="-68" y1="-28.9" x2="-68" y2="-37.5"/>
			<g id="XMLID_64_">
				<polygon id="XMLID_65_" class="st3" points="-65.8,-36.9 -68,-40.7 -70.3,-36.9 				"/>
			</g>
		</g>
	</g>
</g>
<text transform="matrix(1 0 0 1 -46.7754 19.126)" class="st4" style="font-size:6.48px;">V</text>
<text transform="matrix(0.583 0 0 0.583 -42.0957 21.2837)" class="st4" style="font-size:6.48px;">1</text>
<text id="XMLID_90_" transform="matrix(1 0 0 1 27.0579 6.126)" class="st4 st5">+</text>
<text id="XMLID_95_" transform="matrix(1 0 0 1 38.1829 6.126)" class="st4 st5">−</text>
<text id="XMLID_99_" transform="matrix(1 0 0 1 36.5579 8.876)" class="st4 st5">−</text>
<text id="XMLID_100_" transform="matrix(1 0 0 1 36.5577 13.8135)" class="st4 st5">−</text>
<text id="XMLID_101_" transform="matrix(1 0 0 1 38.1828 16.876)" class="st4 st5">−</text>
<text id="XMLID_92_" transform="matrix(1 0 0 1 27.058 8.876)" class="st4 st5">+</text>
<text id="XMLID_93_" transform="matrix(1 0 0 1 27.0578 13.8135)" class="st4 st5">+</text>
<text id="XMLID_94_" transform="matrix(1 0 0 1 27.0578 16.876)" class="st4 st5">+</text>
<text id="XMLID_43_" transform="matrix(1 0 0 1 -49.7102 27.126)" class="st4" style="font-size:6.48px;">20 V</text>
<text transform="matrix(1 0 0 1 -46.7106 -8.7374)" class="st4" style="font-size:6.48px;">R</text>
<text transform="matrix(0.583 0 0 0.583 -42.3883 -6.5797)" class="st4" style="font-size:6.48px;">1</text>
<text id="XMLID_47_" transform="matrix(1 0 0 1 -50.2936 -0.7374)" class="st4" style="font-size:6.48px;">20 Ω</text>
<text transform="matrix(1 0 0 1 -45.7253 44.126)" class="st4" style="font-size:6.48px;">i</text>
<text transform="matrix(0.583 0 0 0.583 -43.925 46.2837)" class="st4" style="font-size:6.48px;">1</text>
<g id="XMLID_12_">
	<g id="XMLID_15_">
		<g id="XMLID_22_">
			<g id="XMLID_27_">
				<path id="XMLID_30_" class="st6" d="M-92.3,76.8c1,0.5,2.1,0.8,3.2,0.8c4.1,0,7.5-3.4,7.4-7.4c0-4-3.3-7.3-7.3-7.3
					c-2,0-3.9,0.8-5.2,2.1"/>
				<g id="XMLID_28_">
					<polygon id="XMLID_29_" class="st3" points="-93.8,75.8 -92.2,78 -92.2,76.8 -91.2,76.2 					"/>
				</g>
			</g>
		</g>
	</g>
	<text transform="matrix(1 0 0 1 -89.6593 71.2952)" class="st4" style="font-size:6.48px;">i</text>
	<text transform="matrix(0.583 0 0 0.583 -87.859 73.4529)" class="st4" style="font-size:6.48px;">1</text>
</g>
<text id="XMLID_13_" transform="matrix(1 0 0 1 -49.9921 52.126)" class="st4" style="font-size:6.48px;">20 A</text>
<g id="XMLID_74_">
	<line id="XMLID_79_" x1="-48.1" y1="-34.1" x2="-48.1" y2="-42.4"/>
	<g id="XMLID_75_">
		<line id="XMLID_78_" class="st7" x1="-48.1" y1="-34.1" x2="-48.1" y2="-41"/>
		<g id="XMLID_76_">
			<polygon id="XMLID_77_" class="st3" points="-47.1,-40.7 -48.1,-42.4 -49.1,-40.7 			"/>
		</g>
	</g>
</g>
<g id="XMLID_34_">
	<g id="XMLID_18_">
		<path id="XMLID_32_" class="st0" d="M-48.1-58.9l8.3-9.2l0,0c0-1.6,0-3.2,0-4.8"/>
		<polyline id="XMLID_31_" class="st0" points="-39.8,-68.1 -39.8,-68.1 -31.6,-59 		"/>
		<polyline id="XMLID_25_" class="st0" points="-31.6,-59 -31.6,-59 -39.8,-49.9 		"/>
		<line id="XMLID_33_" class="st0" x1="-40" y1="-49.9" x2="-48.1" y2="-58.9"/>
		<path id="XMLID_19_" class="st0" d="M-39.8-49.8c0,1.4,0,2.8,0,4.3"/>
	</g>
	<path id="XMLID_21_" class="st1" d="M-41.4-62.5c1,0,1.9,0,2.9,0"/>
	<path id="XMLID_20_" class="st1" d="M-41.4-55c1,0,1.9,0,2.9,0"/>
	<path id="XMLID_23_" class="st1" d="M-40-64c0,1,0,1.9,0,2.9"/>
</g>
<g id="XMLID_17_">
	<g id="XMLID_35_">
		<g id="XMLID_53_">
			<line id="XMLID_56_" class="st2" x1="-14.1" y1="-30.9" x2="-14.1" y2="-37.8"/>
			<g id="XMLID_54_">
				<polygon id="XMLID_55_" class="st3" points="-12.3,-37.3 -14.1,-40.3 -15.8,-37.3 				"/>
			</g>
		</g>
	</g>
	<g id="XMLID_36_">
		<path id="XMLID_44_" class="st0" d="M-22.4-34.6l8.3-9.2l0,0c0-1.6,0-3.2,0-4.8"/>
		<polyline id="XMLID_42_" class="st0" points="-14.1,-43.8 -14.1,-43.7 -5.9,-34.7 		"/>
		<polyline id="XMLID_39_" class="st0" points="-5.9,-34.7 -5.9,-34.7 -14.1,-25.6 		"/>
		<line id="XMLID_38_" class="st0" x1="-14.2" y1="-25.6" x2="-22.4" y2="-34.6"/>
		<path id="XMLID_37_" class="st0" d="M-14.1-25.4c0,1.4,0,2.8,0,4.3"/>
	</g>
</g>
<text id="XMLID_111_" transform="matrix(1 0 0 1 -69.4926 15.8559)" class="st4" style="font-size:6.48px;">−</text>
<text id="XMLID_110_" transform="matrix(1 0 0 1 -69.4926 8.6059)" class="st4" style="font-size:6.48px;">+</text>
<path id="XMLID_45_" class="st0" d="M-75.2,49c0-0.6,0-1.2,0-1.8c-2,0-3.7-1.6-3.7-3.6c0-2.2,2.3-3.4,3.7-3.6
	c1.7-0.3,3.6,0.4,3.6,0.9c0,0.5-1.9,1.3-3.6,0.9c-1.5-0.3-3.7-1.6-3.6-3.7c0-2.1,2.2-3.3,3.7-3.6c1.7-0.3,3.5,0.6,3.5,1.1
	c0,0.5-1.9,1.1-3.6,0.8c-1.4-0.3-3.6-1.6-3.5-3.7c0-2,2.1-3.3,3.6-3.6c1.7-0.3,3.5,0.4,3.5,0.9c0,0.5-1.9,1.3-3.6,0.9
	c-1.4-0.3-3.7-1.5-3.6-3.7c0-1.7,1.6-3.4,3.6-3.6c0-0.6,0-1.2,0-1.8"/>
<g id="XMLID_51_">
	<g id="XMLID_49_">
		<g id="XMLID_83_">
			<path id="XMLID_70_" class="st8" d="M-14.3-7.2"/>
		</g>
		<g id="XMLID_50_">
			<path id="XMLID_82_" class="st0" d="M-14.3-10.7L-14.3-10.7c0-1.6,0,0,0-1.6"/>
			<polyline id="XMLID_61_" class="st0" points="-14.4,-10.7 -14.3,-10.7 -14.3,-3.3 			"/>
			<path id="XMLID_80_" class="st0" d="M-14.4,7.5"/>
			<path id="XMLID_46_" class="st0" d="M-14.5,7.5"/>
			<path id="XMLID_67_" class="st0" d="M-14.2,0l-0.1,7.6c0,1.4,0,0,0,1.4"/>
		</g>
	</g>
	<polyline id="XMLID_59_" class="st0" points="-20.7,-3.3 -17.9,-3.3 -10.5,-3.3 -7.7,-3.3 	"/>
	<path id="XMLID_57_" class="st0" d="M-20.7,2.5C-20.2,2-17.8,0-14.2,0c0.7,0,3.8,0.1,6.5,2.5"/>
</g>
<g id="XMLID_84_">
	<g id="XMLID_91_">
		<path id="XMLID_98_" class="st8" d="M25.8,10.8"/>
	</g>
	<g id="XMLID_85_">
		<path id="XMLID_71_" class="st0" d="M22.4,10.8L22.4,10.8c-1.6,0,0,0-1.6,0H6.5"/>
		<polyline id="XMLID_89_" class="st0" points="22.3,10.8 22.4,10.8 29.8,10.8 		"/>
		<path id="XMLID_88_" class="st0" d="M42.5,10.8"/>
		<path id="XMLID_87_" class="st0" d="M42.5,10.9"/>
		<path id="XMLID_86_" class="st0" d="M35,10.7l7.6,0.1c1.4,0,0,0,1.4,0h13.8"/>
	</g>
</g>
<polyline id="XMLID_81_" class="st0" points="29.8,17.2 29.8,14.3 29.8,6.9 29.8,4.2 "/>
<path id="XMLID_72_" class="st0" d="M37.5,17.2C37,16.6,35,14.3,35,10.7c0-0.7,0.1-3.8,2.5-6.5"/>
<g id="XMLID_102_">
	<line id="XMLID_118_" x1="31.3" y1="4.5" x2="34.7" y2="4.5"/>
	<g id="XMLID_114_">
		<line id="XMLID_117_" class="st9" x1="31.3" y1="4.5" x2="34" y2="4.5"/>
		<g id="XMLID_115_">
			<path id="XMLID_116_" class="st3" d="M34.7,4.5c-0.4,0.1-0.8,0.4-1.1,0.6l0.2-0.6l-0.2-0.6C33.9,4.2,34.4,4.4,34.7,4.5z"/>
		</g>
	</g>
</g>
<g id="XMLID_103_">
	<line id="XMLID_140_" x1="31.3" y1="7.8" x2="33.7" y2="7.8"/>
	<g id="XMLID_122_">
		<line id="XMLID_139_" class="st9" x1="31.2" y1="7.8" x2="32.9" y2="7.8"/>
		<g id="XMLID_123_">
			<path id="XMLID_124_" class="st3" d="M33.7,7.8c-0.4,0.1-0.8,0.4-1.1,0.6l0.2-0.6l-0.2-0.6C32.9,7.5,33.3,7.7,33.7,7.8z"/>
		</g>
	</g>
</g>
<g id="XMLID_112_">
	<line id="XMLID_146_" x1="31.3" y1="12.9" x2="33.7" y2="12.9"/>
	<g id="XMLID_142_">
		<line id="XMLID_145_" class="st9" x1="31.2" y1="12.9" x2="32.9" y2="12.9"/>
		<g id="XMLID_143_">
			<path id="XMLID_144_" class="st3" d="M33.7,12.9c-0.4,0.1-0.8,0.4-1.1,0.6l0.2-0.6l-0.2-0.6C32.9,12.5,33.3,12.7,33.7,12.9z"/>
		</g>
	</g>
</g>
<g id="XMLID_132_">
	<line id="XMLID_138_" x1="31.3" y1="10.5" x2="33.1" y2="10.5"/>
	<g id="XMLID_134_">
		<line id="XMLID_137_" class="st9" x1="31.2" y1="10.5" x2="32.3" y2="10.5"/>
		<g id="XMLID_135_">
			<path id="XMLID_136_" class="st3" d="M33.1,10.5c-0.4,0.1-0.8,0.4-1.1,0.6l0.2-0.6L32,9.9C32.3,10.1,32.7,10.4,33.1,10.5z"/>
		</g>
	</g>
</g>
<g id="XMLID_125_">
	<line id="XMLID_131_" x1="31.4" y1="15.9" x2="34.7" y2="15.9"/>
	<g id="XMLID_127_">
		<line id="XMLID_130_" class="st9" x1="31.4" y1="15.9" x2="34" y2="15.9"/>
		<g id="XMLID_128_">
			<path id="XMLID_129_" class="st3" d="M34.7,15.9c-0.4,0.1-0.8,0.4-1.1,0.6l0.2-0.6l-0.2-0.6C33.9,15.5,34.4,15.7,34.7,15.9z"/>
		</g>
	</g>
</g>
</svg>
