<?xml version="1.0" encoding="utf-8"?>
<!-- Generator: Adobe Illustrator 19.0.0, SVG Export Plug-In . SVG Version: 6.00 Build 0)  -->
<svg version="1.1" id="Layer_1" xmlns="http://www.w3.org/2000/svg" xmlns:xlink="http://www.w3.org/1999/xlink" x="0px" y="0px"
	 viewBox="0 0 183.5 71.5" style="enable-background:new 0 0 183.5 71.5;" xml:space="preserve">
<style type="text/css">
	.st0{fill:none;stroke:#231F20;stroke-linecap:round;stroke-linejoin:round;stroke-miterlimit:10;}
	.st1{fill:none;stroke:#231F20;stroke-linecap:square;stroke-linejoin:round;stroke-miterlimit:10;}
	.st2{fill:none;stroke:#231F20;stroke-linecap:round;stroke-linejoin:round;}
	.st3{fill:#231F20;}
	.st4{font-family:'TimesNewRomanPSMT';}
	.st5{font-size:6.48px;}
	.st6{fill:none;stroke:#231F20;stroke-width:0.5;stroke-linecap:round;stroke-linejoin:round;}
	.st7{fill:none;stroke:#231F20;stroke-width:0.5;stroke-miterlimit:10;}
	.st8{fill:none;}
</style>
<path id="XMLID_1_" class="st0" d="M-61.5-69.3c0.6,0,1.1,0,1.7,0c0.5,0,1.1,0,1.6,0c0.5-1.6,1.1-3.2,1.6-4.8
	c1.1,3.2,2.2,6.5,3.2,9.7c1.1-3.3,2.2-6.5,3.3-9.8c1.1,3.2,2.1,6.4,3.2,9.7c1.1-3.2,2.2-6.5,3.2-9.7c1.1,3.3,2.2,6.5,3.3,9.8
	c0.5-1.6,1.1-3.2,1.6-4.8c1.1,0,2.1,0,3.2,0"/>
<path id="XMLID_58_" class="st0" d="M-57.5,13.7c0,0.6,0,1.1,0,1.7c0,0.5,0,1.1,0,1.6c1.6,0.5,3.2,1.1,4.8,1.6
	c-3.2,1.1-6.5,2.2-9.7,3.2c3.3,1.1,6.5,2.2,9.8,3.3c-3.2,1.1-6.4,2.1-9.7,3.2c3.2,1.1,6.5,2.2,9.7,3.2c-3.3,1.1-6.5,2.2-9.8,3.3
	c1.6,0.5,3.2,1.1,4.8,1.6c0,1.1,0,2.1,0,3.2"/>
<g id="XMLID_24_">
	<path id="XMLID_3_" class="st0" d="M-63.3-32.8c4.9,0.1,9,4.1,9,9c0,5-4.1,9.2-9.1,9.1c-4.9,0-9.1-4.1-9.1-9.1
		C-72.5-28.7-68.3-32.8-63.3-32.8z"/>
	<path id="XMLID_4_" class="st1" d="M-65.2-28c1.2,0,2.4,0,3.6,0"/>
	<path id="XMLID_5_" class="st1" d="M-65.2-18.6c1.2,0,2.4,0,3.6,0"/>
	<path id="XMLID_6_" class="st1" d="M-63.4-29.8c0,1.2,0,2.4,0,3.6"/>
	<path id="XMLID_7_" class="st0" d="M-63.4-32.8c0-1.6,0-3.2,0-4.8"/>
	<path id="XMLID_8_" class="st0" d="M-63.4-14.5c0,1.4,0,2.8,0,4.3"/>
</g>
<g id="XMLID_2_">
	<path id="XMLID_14_" class="st0" d="M-35.3-51.7c4.9,0.1,9,4.1,9,9c0,5-4.1,9.2-9.1,9.1c-4.9,0-9.1-4.1-9.1-9.1
		C-44.5-47.7-40.3-51.8-35.3-51.7z"/>
	<path id="XMLID_10_" class="st0" d="M-35.4-51.8c0-1.6,0-3.2,0-4.8"/>
	<path id="XMLID_9_" class="st0" d="M-35.4-33.4c0,1.4,0,2.8,0,4.3"/>
	<g id="XMLID_11_">
		<g id="XMLID_63_">
			<line id="XMLID_66_" class="st2" x1="-35.4" y1="-37.6" x2="-35.4" y2="-46.1"/>
			<g id="XMLID_64_">
				<polygon id="XMLID_65_" class="st3" points="-33.2,-45.5 -35.4,-49.4 -37.7,-45.5 				"/>
			</g>
		</g>
	</g>
</g>
<g id="XMLID_60_">
	<path id="XMLID_97_" class="st0" d="M30.9,34.6c4.9,0.1,9,4.1,9,9c0,5-4.1,9.2-9.1,9.1c-4.9,0-9.1-4.1-9.1-9.1
		C21.6,38.7,25.9,34.6,30.9,34.6z"/>
	<path id="XMLID_59_" class="st0" d="M30.8,34.6c0-1.6,0-3.2,0-4.8V15.5l38.5,0c0.6,0,1.1,0,1.7,0c0.5,0,1.1,0,1.6,0
		c0.5-1.6,1.1-3.2,1.6-4.8c1.1,3.2,2.2,6.5,3.2,9.7c1.1-3.3,2.2-6.5,3.3-9.8c1.1,3.2,2.1,6.4,3.2,9.7c1.1-3.2,2.2-6.5,3.2-9.7
		c1.1,3.3,2.2,6.5,3.3,9.8c0.5-1.6,1.1-3.2,1.6-4.8c1.1,0,2.1,0,3.2,0"/>
	<path id="XMLID_95_" class="st0" d="M30.8,52.9c0,1.4,0,2.8,0,4.3"/>
	<g id="XMLID_71_">
		<g id="XMLID_82_">
			<line id="XMLID_94_" class="st2" x1="30.8" y1="48.8" x2="30.8" y2="40.3"/>
			<g id="XMLID_92_">
				<polygon id="XMLID_93_" class="st3" points="33,40.9 30.8,37 28.5,40.9 				"/>
			</g>
		</g>
	</g>
</g>
<text transform="matrix(1 0 0 1 -14.1921 10.5201)" class="st4 st5">V</text>
<text transform="matrix(0.583 0 0 0.583 -9.5124 12.6778)" class="st4 st5">1</text>
<text id="XMLID_43_" transform="matrix(1 0 0 1 -17.1269 18.5201)" class="st4 st5">20 V</text>
<text id="XMLID_137_" transform="matrix(0.9999 1.381944e-002 -1.381944e-002 0.9999 142.8503 35.433)" class="st4 st5">v(t)</text>
<text id="XMLID_135_" transform="matrix(1 0 0 1 110.9574 46.418)" class="st4 st5">0.5 μF</text>
<text transform="matrix(1 0 0 1 -14.1273 -17.3433)" class="st4 st5">R</text>
<text transform="matrix(0.583 0 0 0.583 -9.805 -15.1856)" class="st4 st5">1</text>
<text id="XMLID_47_" transform="matrix(1 0 0 1 -17.7103 -9.3433)" class="st4 st5">20 Ω</text>
<text id="XMLID_136_" transform="matrix(1 0 0 1 165.5397 31.6567)" class="st4 st5">20 kΩ</text>
<text id="XMLID_133_" transform="matrix(1 0 0 1 121.2897 10.9783)" class="st4 st5">t = 0</text>
<text id="XMLID_120_" transform="matrix(1 0 0 1 45.0397 33.7199)" class="st4 st5">60 kΩ</text>
<text id="XMLID_124_" transform="matrix(1 0 0 1 73.7748 8.0635)" class="st4 st5">10 kΩ</text>
<text transform="matrix(1 0 0 1 -13.1419 35.5201)" class="st4 st5">i</text>
<text transform="matrix(0.583 0 0 0.583 -11.3416 37.6778)" class="st4 st5">1</text>
<g id="XMLID_12_">
	<g id="XMLID_15_">
		<g id="XMLID_22_">
			<g id="XMLID_27_">
				<path id="XMLID_30_" class="st6" d="M-59.7,68.2c1,0.5,2.1,0.8,3.2,0.8c4.1,0,7.5-3.4,7.4-7.4c0-4-3.3-7.3-7.3-7.3
					c-2,0-3.9,0.8-5.2,2.1"/>
				<g id="XMLID_28_">
					<polygon id="XMLID_29_" class="st3" points="-61.2,67.2 -59.6,69.4 -59.6,68.2 -58.6,67.6 					"/>
				</g>
			</g>
		</g>
	</g>
	<text transform="matrix(1 0 0 1 -57.076 62.6893)" class="st4 st5">i</text>
	<text transform="matrix(0.583 0 0 0.583 -55.2757 64.847)" class="st4 st5">1</text>
</g>
<text id="XMLID_13_" transform="matrix(1 0 0 1 -17.4088 43.5201)" class="st4 st5">20 A</text>
<text id="XMLID_119_" transform="matrix(1 0 0 1 1.8412 43.5201)" class="st4 st5">15 mA</text>
<g id="XMLID_74_">
	<line id="XMLID_79_" x1="-15.5" y1="-42.7" x2="-15.5" y2="-51"/>
	<g id="XMLID_75_">
		<line id="XMLID_78_" class="st7" x1="-15.5" y1="-42.7" x2="-15.5" y2="-49.6"/>
		<g id="XMLID_76_">
			<polygon id="XMLID_77_" class="st3" points="-14.5,-49.3 -15.5,-51 -16.5,-49.3 			"/>
		</g>
	</g>
</g>
<g id="XMLID_34_">
	<g id="XMLID_18_">
		<path id="XMLID_32_" class="st0" d="M-15.5-67.6l8.3-9.2l0,0c0-1.6,0-3.2,0-4.8"/>
		<polyline id="XMLID_31_" class="st0" points="-7.3,-76.7 -7.2,-76.7 1,-67.6 		"/>
		<polyline id="XMLID_25_" class="st0" points="1,-67.6 1,-67.6 -7.3,-58.5 		"/>
		<line id="XMLID_33_" class="st0" x1="-7.4" y1="-58.5" x2="-15.5" y2="-67.6"/>
		<path id="XMLID_19_" class="st0" d="M-7.2-58.4c0,1.4,0,2.8,0,4.3"/>
	</g>
	<path id="XMLID_21_" class="st1" d="M-8.8-71.1c1,0,1.9,0,2.9,0"/>
	<path id="XMLID_20_" class="st1" d="M-8.8-63.6c1,0,1.9,0,2.9,0"/>
	<path id="XMLID_23_" class="st1" d="M-7.4-72.6c0,1,0,1.9,0,2.9"/>
</g>
<g id="XMLID_17_">
	<g id="XMLID_35_">
		<g id="XMLID_53_">
			<line id="XMLID_56_" class="st2" x1="18.5" y1="-39.5" x2="18.5" y2="-46.4"/>
			<g id="XMLID_54_">
				<polygon id="XMLID_55_" class="st3" points="20.2,-45.9 18.5,-48.9 16.8,-45.9 				"/>
			</g>
		</g>
	</g>
	<g id="XMLID_36_">
		<path id="XMLID_44_" class="st0" d="M10.2-43.2l8.3-9.2l0,0c0-1.6,0-3.2,0-4.8"/>
		<polyline id="XMLID_42_" class="st0" points="18.5,-52.4 18.5,-52.4 26.7,-43.3 		"/>
		<polyline id="XMLID_39_" class="st0" points="26.7,-43.3 26.7,-43.3 18.5,-34.2 		"/>
		<line id="XMLID_38_" class="st0" x1="18.3" y1="-34.2" x2="10.2" y2="-43.2"/>
		<path id="XMLID_37_" class="st0" d="M18.5-34c0,1.4,0,2.8,0,4.3"/>
	</g>
</g>
<text id="XMLID_111_" transform="matrix(1 0 0 1 -36.9092 7.25)" class="st4 st5">−</text>
<text id="XMLID_139_" transform="matrix(1 0 0 1 145.6001 62.6893)" class="st4 st5">−</text>
<text id="XMLID_110_" transform="matrix(1 0 0 1 -36.9093 0)" class="st4 st5">+</text>
<text id="XMLID_138_" transform="matrix(1 0 0 1 145.6001 22.5846)" class="st4 st5">+</text>
<path id="XMLID_45_" class="st0" d="M-42.6,40.4c0-0.6,0-1.2,0-1.8c-2,0-3.7-1.6-3.7-3.6c0-2.2,2.3-3.4,3.7-3.6
	c1.7-0.3,3.6,0.4,3.6,0.9c0,0.5-1.9,1.3-3.6,0.9c-1.5-0.3-3.7-1.6-3.6-3.7c0-2.1,2.2-3.3,3.7-3.6c1.7-0.3,3.5,0.6,3.5,1.1
	c0,0.5-1.9,1.1-3.6,0.8c-1.4-0.3-3.6-1.6-3.5-3.7c0-2,2.1-3.3,3.6-3.6c1.7-0.3,3.5,0.4,3.5,0.9c0,0.5-1.9,1.3-3.6,0.9
	c-1.4-0.3-3.7-1.5-3.6-3.7c0-1.7,1.6-3.4,3.6-3.6c0-0.6,0-1.2,0-1.8"/>
<g id="XMLID_46_">
	<g id="XMLID_84_">
		<g id="XMLID_91_">
			<path id="XMLID_67_" class="st8" d="M-46.2,3.8"/>
		</g>
		<g id="XMLID_85_">
			<path id="XMLID_90_" class="st0" d="M-46.2,7.3L-46.2,7.3c0,1.6,0,0,0,1.6"/>
			<polyline id="XMLID_89_" class="st0" points="-46.1,7.3 -46.2,7.3 -46.2,-0.2 			"/>
			<path id="XMLID_88_" class="st0" d="M-46.1-12.9"/>
			<path id="XMLID_87_" class="st0" d="M-46-12.9"/>
			<path id="XMLID_86_" class="st0" d="M-46.3-5.4l0.1-7.6c0-1.4,0,0,0-1.4"/>
		</g>
	</g>
	<polyline id="XMLID_81_" class="st0" points="-39.8,-0.2 -42.6,-0.2 -50,-0.2 -52.8,-0.2 	"/>
	<path id="XMLID_72_" class="st0" d="M-39.8-7.9c-0.5,0.5-2.9,2.5-6.5,2.5c-0.7,0-3.8-0.1-6.5-2.5"/>
</g>
<g id="XMLID_99_">
	<g id="XMLID_107_">
		<g id="XMLID_116_">
			<path id="XMLID_123_" class="st8" d="M137.5,37.2"/>
		</g>
		<g id="XMLID_108_">
			<path id="XMLID_115_" class="st0" d="M137.5,33.7L137.5,33.7c0-1.6,0,0,0-1.6V16"/>
			<polyline id="XMLID_114_" class="st0" points="137.5,33.7 137.5,33.7 137.5,41.2 			"/>
			<path id="XMLID_113_" class="st0" d="M137.5,53.9"/>
			<path id="XMLID_112_" class="st0" d="M137.4,53.9"/>
			<path id="XMLID_109_" class="st0" d="M137.6,46.4l-0.1,7.6c0,1.4,0,0,0,1.4v11.8"/>
		</g>
	</g>
	<polyline id="XMLID_106_" class="st0" points="131.1,41.2 133.9,41.2 141.4,41.2 144.1,41.2 	"/>
	<path id="XMLID_100_" class="st0" d="M131.1,48.9c0.5-0.5,2.9-2.5,6.5-2.5c0.7,0,3.8,0.1,6.5,2.5"/>
</g>
<g id="XMLID_49_">
	<polyline id="XMLID_50_" class="st0" points="43.6,-58.5 52.6,-58.5 64.4,-67.6 	"/>
	<line id="XMLID_51_" class="st0" x1="67.9" y1="-58.5" x2="79.7" y2="-58.5"/>
</g>
<g id="XMLID_57_">
	<g id="XMLID_68_">
		<polyline id="XMLID_70_" class="st0" points="43.6,-42.3 52.6,-42.3 64.4,-51.4 		"/>
		<line id="XMLID_69_" class="st0" x1="67.9" y1="-42.3" x2="79.7" y2="-42.3"/>
	</g>
	<g id="XMLID_83_">
		<g id="XMLID_102_">
			<path id="XMLID_105_" class="st6" d="M53.9-48.4c1.4-0.8,3-1.2,4.7-1.3c5.7-0.2,10.9,4.1,11.9,10"/>
			<g id="XMLID_103_">
				<polygon id="XMLID_104_" class="st3" points="57.4,-48.1 57.3,-48.6 54.1,-48.3 56.4,-50.6 56,-50.9 52.7,-47.6 				"/>
			</g>
		</g>
	</g>
</g>
<g id="XMLID_125_">
	<g id="XMLID_132_">
		<polyline id="XMLID_134_" class="st0" points="95.2,15.5 104.2,15.5 116,6.4 		"/>
		<path id="XMLID_96_" class="st0" d="M119.5,15.5h11.8h31.3l0,16.8c0,0.6,0,1.1,0,1.7c0,0.5,0,1.1,0,1.6c1.6,0.5,3.2,1.1,4.8,1.6
			c-3.2,1.1-6.5,2.2-9.7,3.2c3.3,1.1,6.5,2.2,9.8,3.3c-3.2,1.1-6.4,2.1-9.7,3.2c3.2,1.1,6.5,2.2,9.7,3.2c-3.3,1.1-6.5,2.2-9.8,3.3
			c1.6,0.5,3.2,1.1,4.8,1.6c0,1.1,0,2.1,0,3.2v9H30.8V57.2"/>
	</g>
	<g id="XMLID_126_">
		<g id="XMLID_128_">
			<path id="XMLID_131_" class="st6" d="M105.5,9.5c1.4-0.8,3-1.2,4.7-1.3c5.7-0.2,10.9,4.1,11.9,10"/>
			<g id="XMLID_129_">
				<polygon id="XMLID_130_" class="st3" points="109,9.8 108.9,9.3 105.7,9.6 108,7.2 107.6,6.9 104.3,10.2 				"/>
			</g>
		</g>
	</g>
</g>
<path id="XMLID_117_" class="st0" d="M64.4,16l0,14.5c0,0.6,0,1.1,0,1.7c0,0.5,0,1.1,0,1.6c1.6,0.5,3.2,1.1,4.8,1.6
	c-3.2,1.1-6.5,2.2-9.7,3.2c3.3,1.1,6.5,2.2,9.8,3.3c-3.2,1.1-6.4,2.1-9.7,3.2c3.2,1.1,6.5,2.2,9.7,3.2c-3.3,1.1-6.5,2.2-9.8,3.3
	c1.6,0.5,3.2,1.1,4.8,1.6c0,1.1,0,2.1,0,3.2v10.8"/>
<path id="XMLID_98_" class="st0" d="M89-11.2"/>
</svg>
