<?xml version="1.0" encoding="utf-8"?>
<!-- Generator: Adobe Illustrator 19.0.0, SVG Export Plug-In . SVG Version: 6.00 Build 0)  -->
<svg version="1.1" id="Layer_1" xmlns="http://www.w3.org/2000/svg" xmlns:xlink="http://www.w3.org/1999/xlink" x="0px" y="0px"
	 viewBox="0 0 97.5 67.8" style="enable-background:new 0 0 97.5 67.8;" xml:space="preserve">
<style type="text/css">
	.st0{fill:none;stroke:#231F20;stroke-linecap:round;stroke-linejoin:round;stroke-miterlimit:10;}
	.st1{fill:none;stroke:#231F20;stroke-linecap:square;stroke-linejoin:round;stroke-miterlimit:10;}
	.st2{fill:none;stroke:#231F20;stroke-linecap:round;stroke-linejoin:round;}
	.st3{fill:#231F20;}
	.st4{font-family:'TimesNewRomanPSMT';}
	.st5{font-size:6.48px;}
	.st6{fill:none;stroke:#231F20;stroke-width:0.5;stroke-linecap:round;stroke-linejoin:round;}
	.st7{fill:none;stroke:#231F20;stroke-width:0.5;stroke-miterlimit:10;}
</style>
<path id="XMLID_1_" class="st0" d="M-99.5-49.3c0.6,0,1.1,0,1.7,0c0.5,0,1.1,0,1.6,0c0.5-1.6,1.1-3.2,1.6-4.8
	c1.1,3.2,2.2,6.5,3.2,9.7c1.1-3.3,2.2-6.5,3.3-9.8c1.1,3.2,2.1,6.4,3.2,9.7c1.1-3.2,2.2-6.5,3.2-9.7c1.1,3.3,2.2,6.5,3.3,9.8
	c0.5-1.6,1.1-3.2,1.6-4.8c1.1,0,2.1,0,3.2,0"/>
<path id="XMLID_58_" class="st0" d="M-95.5,33.6c0,0.6,0,1.1,0,1.7c0,0.5,0,1.1,0,1.6c1.6,0.5,3.2,1.1,4.8,1.6
	c-3.2,1.1-6.5,2.2-9.7,3.2c3.3,1.1,6.5,2.2,9.8,3.3c-3.2,1.1-6.4,2.1-9.7,3.2c3.2,1.1,6.5,2.2,9.7,3.2c-3.3,1.1-6.5,2.2-9.8,3.3
	c1.6,0.5,3.2,1.1,4.8,1.6c0,1.1,0,2.1,0,3.2"/>
<g id="XMLID_24_">
	<path id="XMLID_3_" class="st0" d="M-101.3-12.8c4.9,0.1,9,4.1,9,9c0,5-4.1,9.2-9.1,9.1c-4.9,0-9.1-4.1-9.1-9.1
		C-110.5-8.7-106.3-12.8-101.3-12.8z"/>
	<path id="XMLID_4_" class="st1" d="M-103.2-8c1.2,0,2.4,0,3.6,0"/>
	<path id="XMLID_5_" class="st1" d="M-103.2,1.4c1.2,0,2.4,0,3.6,0"/>
	<path id="XMLID_6_" class="st1" d="M-101.4-9.8c0,1.2,0,2.4,0,3.6"/>
	<path id="XMLID_7_" class="st0" d="M-101.4-12.8c0-1.6,0-3.2,0-4.8"/>
	<path id="XMLID_8_" class="st0" d="M-101.4,5.5c0,1.4,0,2.8,0,4.3"/>
</g>
<g id="XMLID_2_">
	<path id="XMLID_14_" class="st0" d="M-73.3-31.8c4.9,0.1,9,4.1,9,9c0,5-4.1,9.2-9.1,9.1c-4.9,0-9.1-4.1-9.1-9.1
		C-82.5-27.7-78.3-31.8-73.3-31.8z"/>
	<path id="XMLID_10_" class="st0" d="M-73.4-31.8c0-1.6,0-3.2,0-4.8"/>
	<path id="XMLID_9_" class="st0" d="M-73.4-13.5c0,1.4,0,2.8,0,4.3"/>
	<g id="XMLID_11_">
		<g id="XMLID_63_">
			<line id="XMLID_66_" class="st2" x1="-73.4" y1="-17.6" x2="-73.4" y2="-26.1"/>
			<g id="XMLID_64_">
				<polygon id="XMLID_65_" class="st3" points="-71.2,-25.5 -73.4,-29.4 -75.7,-25.5 				"/>
			</g>
		</g>
	</g>
</g>
<g id="XMLID_49_">
	<path id="XMLID_69_" class="st0" d="M18.2,27.1c4.9,0.1,9,4.1,9,9c0,5-4.1,9.2-9.1,9.1c-4.9,0-9.1-4.1-9.1-9.1
		C9,31.2,13.2,27.1,18.2,27.1z"/>
	<path id="XMLID_68_" class="st0" d="M18.1,27.1c0-1.6,0-3.2,0-4.8V6.2h36.5l0,16.5c0,0.6,0,1.2,0,1.8c-2.1,0.2-3.6,1.8-3.6,3.6
		c0,2.2,2.2,3.3,3.6,3.7c1.6,0.4,3.6-0.4,3.6-0.9c0-0.5-1.9-1.2-3.5-0.9c-1.5,0.3-3.6,1.5-3.6,3.6c0,2.1,2.1,3.3,3.5,3.7
		c1.7,0.4,3.6-0.2,3.6-0.8c0-0.5-1.8-1.3-3.5-1.1c-1.6,0.2-3.7,1.5-3.7,3.6c0,2.1,2.1,3.4,3.6,3.7c1.7,0.3,3.6-0.4,3.6-0.9
		c0-0.5-1.9-1.3-3.6-0.9c-1.4,0.3-3.7,1.5-3.7,3.6c0,2,1.7,3.6,3.7,3.6c0,0.6,0,1.2,0,1.8v9.9"/>
	<path id="XMLID_67_" class="st0" d="M18.1,45.4c0,1.4,0,2.8,0,4.3v9.9h72l0.1-9.9c0-0.6,0-1.2,0-1.8c-2,0-3.7-1.6-3.7-3.6
		c0-2.2,2.3-3.4,3.7-3.6c1.7-0.3,3.6,0.4,3.6,0.9c0,0.5-1.9,1.3-3.6,0.9c-1.5-0.3-3.7-1.6-3.6-3.7c0-2.1,2.2-3.3,3.7-3.6
		c1.7-0.3,3.5,0.6,3.5,1.1c0,0.5-1.9,1.1-3.6,0.8c-1.4-0.3-3.6-1.6-3.5-3.7c0-2,2.1-3.3,3.6-3.6c1.7-0.3,3.5,0.4,3.5,0.9
		c0,0.5-1.9,1.3-3.6,0.9c-1.4-0.3-3.7-1.5-3.6-3.7c0-1.7,1.6-3.4,3.6-3.6c0-0.6,0-1.2,0-1.8l0-16.5H53.4"/>
	<g id="XMLID_50_">
		<g id="XMLID_57_">
			<line id="XMLID_61_" class="st2" x1="18.1" y1="41.3" x2="18.1" y2="32.7"/>
			<g id="XMLID_59_">
				<polygon id="XMLID_60_" class="st3" points="20.3,33.4 18.1,29.5 15.8,33.4 				"/>
			</g>
		</g>
	</g>
</g>
<text transform="matrix(1 0 0 1 -52.1921 30.5)" class="st4 st5">V</text>
<text transform="matrix(0.583 0 0 0.583 -47.5124 32.6577)" class="st4 st5">1</text>
<text id="XMLID_70_" transform="matrix(1 0 0 1 2.8079 36.1973)" class="st4 st5">v</text>
<text id="XMLID_43_" transform="matrix(1 0 0 1 -55.1269 38.5)" class="st4 st5">20 V</text>
<text transform="matrix(1 0 0 1 -52.1273 2.6366)" class="st4 st5">R</text>
<text transform="matrix(0.583 0 0 0.583 -47.805 4.7943)" class="st4 st5">1</text>
<text id="XMLID_47_" transform="matrix(1 0 0 1 -55.7103 10.6366)" class="st4 st5">20 Ω</text>
<text transform="matrix(1 0 0 1 -51.1419 55.5)" class="st4 st5">i</text>
<text transform="matrix(0.583 0 0 0.583 -49.3416 57.6577)" class="st4 st5">1</text>
<text transform="matrix(1 0 0 1 41.1081 41.1975)" class="st4 st5">i</text>
<text transform="matrix(0.583 0 0 0.583 42.9084 43.3553)" class="st4 st5">1</text>
<g id="XMLID_12_">
	<g id="XMLID_15_">
		<g id="XMLID_22_">
			<g id="XMLID_27_">
				<path id="XMLID_30_" class="st6" d="M-97.7,88.1c1,0.5,2.1,0.8,3.2,0.8c4.1,0,7.5-3.4,7.4-7.4c0-4-3.3-7.3-7.3-7.3
					c-2,0-3.9,0.8-5.2,2.1"/>
				<g id="XMLID_28_">
					<polygon id="XMLID_29_" class="st3" points="-99.2,87.2 -97.6,89.3 -97.6,88.2 -96.6,87.6 					"/>
				</g>
			</g>
		</g>
	</g>
	<text transform="matrix(1 0 0 1 -95.076 82.6692)" class="st4 st5">i</text>
	<text transform="matrix(0.583 0 0 0.583 -93.2757 84.827)" class="st4 st5">1</text>
</g>
<text id="XMLID_13_" transform="matrix(1 0 0 1 -55.4088 63.5)" class="st4 st5">20 A</text>
<text id="XMLID_94_" transform="matrix(1 0 0 1 38.3412 29)" class="st4 st5">5 H</text>
<text id="XMLID_95_" transform="matrix(1 0 0 1 71.5912 29.2299)" class="st4 st5">20 H</text>
<g id="XMLID_74_">
	<line id="XMLID_79_" x1="-53.5" y1="-22.7" x2="-53.5" y2="-31.1"/>
	<g id="XMLID_75_">
		<line id="XMLID_78_" class="st7" x1="-53.5" y1="-22.7" x2="-53.5" y2="-29.6"/>
		<g id="XMLID_76_">
			<polygon id="XMLID_77_" class="st3" points="-52.5,-29.3 -53.5,-31.1 -54.5,-29.3 			"/>
		</g>
	</g>
</g>
<g id="XMLID_71_">
	<line id="XMLID_92_" x1="46.5" y1="36" x2="46.5" y2="44.4"/>
	<g id="XMLID_88_">
		<line id="XMLID_91_" class="st7" x1="46.5" y1="36" x2="46.5" y2="42.9"/>
		<g id="XMLID_89_">
			<polygon id="XMLID_90_" class="st3" points="45.5,42.7 46.5,44.4 47.5,42.7 			"/>
		</g>
	</g>
</g>
<g id="XMLID_34_">
	<g id="XMLID_18_">
		<path id="XMLID_32_" class="st0" d="M-53.5-47.6l8.3-9.2l0,0c0-1.6,0-3.2,0-4.8"/>
		<polyline id="XMLID_31_" class="st0" points="-45.3,-56.8 -45.2,-56.7 -37,-47.7 		"/>
		<polyline id="XMLID_25_" class="st0" points="-37,-47.7 -37,-47.7 -45.3,-38.6 		"/>
		<line id="XMLID_33_" class="st0" x1="-45.4" y1="-38.6" x2="-53.5" y2="-47.6"/>
		<path id="XMLID_19_" class="st0" d="M-45.2-38.4c0,1.4,0,2.8,0,4.3"/>
	</g>
	<path id="XMLID_21_" class="st1" d="M-46.8-51.2c1,0,1.9,0,2.9,0"/>
	<path id="XMLID_20_" class="st1" d="M-46.8-43.7c1,0,1.9,0,2.9,0"/>
	<path id="XMLID_23_" class="st1" d="M-45.4-52.6c0,1,0,1.9,0,2.9"/>
</g>
<g id="XMLID_17_">
	<g id="XMLID_35_">
		<g id="XMLID_53_">
			<line id="XMLID_56_" class="st2" x1="-19.5" y1="-19.5" x2="-19.5" y2="-26.4"/>
			<g id="XMLID_54_">
				<polygon id="XMLID_55_" class="st3" points="-17.8,-25.9 -19.5,-28.9 -21.2,-25.9 				"/>
			</g>
		</g>
	</g>
	<g id="XMLID_36_">
		<path id="XMLID_44_" class="st0" d="M-27.8-23.2l8.3-9.2l0,0c0-1.6,0-3.2,0-4.8"/>
		<polyline id="XMLID_42_" class="st0" points="-19.5,-32.4 -19.5,-32.4 -11.3,-23.3 		"/>
		<polyline id="XMLID_39_" class="st0" points="-11.3,-23.3 -11.3,-23.3 -19.5,-14.2 		"/>
		<line id="XMLID_38_" class="st0" x1="-19.7" y1="-14.2" x2="-27.8" y2="-23.2"/>
		<path id="XMLID_37_" class="st0" d="M-19.5-14.1c0,1.4,0,2.8,0,4.3"/>
	</g>
</g>
<text id="XMLID_111_" transform="matrix(1 0 0 1 -74.9092 27.2299)" class="st4 st5">−</text>
<text id="XMLID_110_" transform="matrix(1 0 0 1 -74.9093 19.9799)" class="st4 st5">+</text>
<path id="XMLID_45_" class="st0" d="M-80.6,60.4c0-0.6,0-1.2,0-1.8c-2,0-3.7-1.6-3.7-3.6c0-2.2,2.3-3.4,3.7-3.6
	c1.7-0.3,3.6,0.4,3.6,0.9c0,0.5-1.9,1.3-3.6,0.9c-1.5-0.3-3.7-1.6-3.6-3.7c0-2.1,2.2-3.3,3.7-3.6c1.7-0.3,3.5,0.6,3.5,1.1
	c0,0.5-1.9,1.1-3.6,0.8c-1.4-0.3-3.6-1.6-3.5-3.7c0-2,2.1-3.3,3.6-3.6c1.7-0.3,3.5,0.4,3.5,0.9c0,0.5-1.9,1.3-3.6,0.9
	c-1.4-0.3-3.7-1.5-3.6-3.7c0-1.7,1.6-3.4,3.6-3.6c0-0.6,0-1.2,0-1.8"/>
<text transform="matrix(1 0 0 1 78.1081 41.1975)" class="st4 st5">i</text>
<text transform="matrix(0.583 0 0 0.583 79.9084 43.3553)" class="st4 st5">2</text>
<g id="XMLID_46_">
	<line id="XMLID_85_" x1="83.5" y1="36" x2="83.5" y2="44.4"/>
	<g id="XMLID_81_">
		<line id="XMLID_84_" class="st7" x1="83.5" y1="36" x2="83.5" y2="42.9"/>
		<g id="XMLID_82_">
			<polygon id="XMLID_83_" class="st3" points="82.5,42.7 83.5,44.4 84.5,42.7 			"/>
		</g>
	</g>
</g>
</svg>
