<?xml version="1.0" encoding="utf-8"?>
<!-- Generator: Adobe Illustrator 19.0.0, SVG Export Plug-In . SVG Version: 6.00 Build 0)  -->
<svg version="1.1" id="Layer_1" xmlns="http://www.w3.org/2000/svg" xmlns:xlink="http://www.w3.org/1999/xlink" x="0px" y="0px"
	 viewBox="0 0 201.3 89.7" style="enable-background:new 0 0 201.3 89.7;" xml:space="preserve">
<style type="text/css">
	.st0{fill:none;stroke:#231F20;stroke-linecap:round;stroke-linejoin:round;stroke-miterlimit:10;}
	.st1{fill:none;stroke:#231F20;stroke-linecap:square;stroke-linejoin:round;stroke-miterlimit:10;}
	.st2{fill:none;stroke:#231F20;stroke-linecap:round;stroke-linejoin:round;}
	.st3{fill:#231F20;}
	.st4{fill:#010101;}
	.st5{font-family:'TimesNewRomanPSMT';}
	.st6{font-size:6.48px;}
	.st7{fill:none;stroke:#231F20;stroke-width:0.5;stroke-linecap:round;stroke-linejoin:round;}
	.st8{fill:none;stroke:#231F20;stroke-width:0.5;stroke-miterlimit:10;}
</style>
<path id="XMLID_23_" class="st0" d="M-117.8-17.5c0.6,0,1.1,0,1.7,0c0.5,0,1.1,0,1.6,0c0.5-1.6,1.1-3.2,1.6-4.8
	c1.1,3.2,2.2,6.5,3.2,9.7c1.1-3.3,2.2-6.5,3.3-9.8c1.1,3.2,2.1,6.4,3.2,9.7c1.1-3.2,2.2-6.5,3.2-9.7c1.1,3.3,2.2,6.5,3.3,9.8
	c0.5-1.6,1.1-3.2,1.6-4.8c1.1,0,2.1,0,3.2,0"/>
<path id="XMLID_58_" class="st0" d="M-113.8,65.4c0,0.6,0,1.1,0,1.7c0,0.5,0,1.1,0,1.6c1.6,0.5,3.2,1.1,4.8,1.6
	c-3.2,1.1-6.5,2.2-9.7,3.2c3.3,1.1,6.5,2.2,9.8,3.3c-3.2,1.1-6.4,2.1-9.7,3.2c3.2,1.1,6.5,2.2,9.7,3.2c-3.3,1.1-6.5,2.2-9.8,3.3
	c1.6,0.5,3.2,1.1,4.8,1.6c0,1.1,0,2.1,0,3.2"/>
<g id="XMLID_35_">
	<path id="XMLID_21_" class="st0" d="M-119.7,19c4.9,0.1,9,4.1,9,9c0,5-4.1,9.2-9.1,9.1c-4.9,0-9.1-4.1-9.1-9.1
		C-128.9,23.1-124.6,19-119.7,19z"/>
	<path id="XMLID_20_" class="st1" d="M-121.6,23.8c1.2,0,2.4,0,3.6,0"/>
	<path id="XMLID_19_" class="st1" d="M-121.6,33.2c1.2,0,2.4,0,3.6,0"/>
	<path id="XMLID_18_" class="st1" d="M-119.8,22c0,1.2,0,2.4,0,3.6"/>
	<path id="XMLID_7_" class="st0" d="M-119.8,19c0-1.6,0-3.2,0-4.8"/>
	<path id="XMLID_8_" class="st0" d="M-119.8,37.3c0,1.4,0,2.8,0,4.3"/>
</g>
<g id="XMLID_24_">
	<path id="XMLID_30_" class="st0" d="M24.4,42.2c4.9,0.1,9,4.1,9,9c0,5-4.1,9.2-9.1,9.1c-4.9,0-9.1-4.1-9.1-9.1
		C15.2,46.2,19.4,42.1,24.4,42.2z"/>
	<path id="XMLID_29_" class="st1" d="M22.5,47c1.2,0,2.4,0,3.6,0"/>
	<path id="XMLID_28_" class="st1" d="M22.5,56.3c1.2,0,2.4,0,3.6,0"/>
	<path id="XMLID_27_" class="st1" d="M24.3,45.2c0,1.2,0,2.4,0,3.6"/>
	<path id="XMLID_26_" class="st0" d="M24.3,42.1c0-1.6,0-3.2,0-4.8V14.2l14.6,0c0.6,0,1.1,0,1.7,0c0.5,0,1.1,0,1.6,0
		c0.5-1.6,1.1-3.2,1.6-4.8c1.1,3.2,2.2,6.5,3.2,9.7c1.1-3.3,2.2-6.5,3.3-9.8c1.1,3.2,2.1,6.4,3.2,9.7c1.1-3.2,2.2-6.5,3.2-9.7
		c1.1,3.3,2.2,6.5,3.3,9.8c0.5-1.6,1.1-3.2,1.6-4.8c1.1,0,2.1,0,3.2,0h13.4V33"/>
	<path id="XMLID_25_" class="st0" d="M24.3,60.4c0,1.4,0,2.8,0,4.3V78l54.1,0V60.4"/>
</g>
<g id="XMLID_6_">
	<path id="XMLID_14_" class="st0" d="M-91.6,0c4.9,0.1,9,4.1,9,9c0,5-4.1,9.2-9.1,9.1c-4.9,0-9.1-4.1-9.1-9.1
		C-100.9,4.1-96.6,0-91.6,0z"/>
	<path id="XMLID_10_" class="st0" d="M-91.8,0c0-1.6,0-3.2,0-4.8"/>
	<path id="XMLID_9_" class="st0" d="M-91.8,18.3c0,1.4,0,2.8,0,4.3"/>
	<g id="XMLID_11_">
		<g id="XMLID_46_">
			<line id="XMLID_51_" class="st2" x1="-91.8" y1="14.2" x2="-91.8" y2="5.7"/>
			<g id="XMLID_49_">
				<polygon id="XMLID_50_" class="st3" points="-89.5,6.3 -91.8,2.4 -94,6.3 				"/>
			</g>
		</g>
	</g>
</g>
<text transform="matrix(1 0 0 1 -70.5161 62.3015)" class="st4 st5 st6">V</text>
<text transform="matrix(0.583 0 0 0.583 -65.8364 64.4592)" class="st4 st5 st6">1</text>
<text id="XMLID_43_" transform="matrix(1 0 0 1 -73.4509 70.3015)" class="st4 st5 st6">20 V</text>
<text id="XMLID_104_" transform="matrix(1 0 0 1 87.8824 48.6933)" class="st4 st5 st6">3v</text>
<text id="XMLID_109_" transform="matrix(1 0 0 1 163.8824 48.7625)" class="st4 st5 st6">v</text>
<text id="XMLID_111_" transform="matrix(1 0 0 1 170.7574 76.2625)" class="st4 st5 st6">−</text>
<text id="XMLID_110_" transform="matrix(1 0 0 1 170.7574 22.0125)" class="st4 st5 st6">+</text>
<text id="XMLID_102_" transform="matrix(1 0 0 1 3.2157 52.4144)" class="st4 st5 st6">5 V</text>
<text transform="matrix(1 0 0 1 -70.4513 34.4381)" class="st4 st5 st6">R</text>
<text transform="matrix(0.583 0 0 0.583 -66.129 36.5958)" class="st4 st5 st6">1</text>
<text id="XMLID_107_" transform="matrix(1 0 0 1 190.2154 14.8334)" class="st4 st5 st6">a</text>
<text id="XMLID_108_" transform="matrix(1 0 0 1 190.2154 79.8334)" class="st4 st5 st6">b</text>
<text id="XMLID_47_" transform="matrix(1 0 0 1 -74.0343 42.4381)" class="st4 st5 st6">20 Ω</text>
<text id="XMLID_106_" transform="matrix(1 0 0 1 183.9657 47.6932)" class="st4 st5 st6">25 Ω</text>
<text id="XMLID_103_" transform="matrix(1 0 0 1 43.9657 7.831)" class="st4 st5 st6">2 kΩ</text>
<text transform="matrix(1 0 0 1 -69.466 87.3015)" class="st4 st5 st6">i</text>
<text transform="matrix(0.583 0 0 0.583 -67.6657 89.4592)" class="st4 st5 st6">1</text>
<text id="XMLID_134_" transform="matrix(1 0 0 1 15.1639 25.7175)" class="st4 st5 st6">i</text>
<g id="XMLID_12_">
	<g id="XMLID_15_">
		<g id="XMLID_22_">
			<g id="XMLID_38_">
				<path id="XMLID_44_" class="st7" d="M-116.1,119.9c1,0.5,2.1,0.8,3.2,0.8c4.1,0,7.5-3.4,7.4-7.4c0-4-3.3-7.3-7.3-7.3
					c-2,0-3.9,0.8-5.2,2.1"/>
				<g id="XMLID_39_">
					<polygon id="XMLID_42_" class="st3" points="-117.5,119 -116,121.2 -115.9,120 -114.9,119.4 					"/>
				</g>
			</g>
		</g>
	</g>
	<text transform="matrix(1 0 0 1 -113.4 114.4707)" class="st4 st5 st6">i</text>
	<text transform="matrix(0.583 0 0 0.583 -111.5997 116.6284)" class="st4 st5 st6">1</text>
</g>
<g id="XMLID_137_">
	<g id="XMLID_138_">
		<g id="XMLID_140_">
			<path id="XMLID_143_" class="st7" d="M46.9,51.4c1,0.5,2.1,0.8,3.2,0.8c4.1,0,7.5-3.4,7.4-7.4c0-4-3.3-7.3-7.3-7.3
				c-2,0-3.9,0.8-5.2,2.1"/>
			<g id="XMLID_141_">
				<polygon id="XMLID_142_" class="st3" points="45.4,50.5 47,52.6 47,51.4 48,50.9 				"/>
			</g>
		</g>
	</g>
</g>
<text transform="matrix(1 0 0 1 49.5185 45.9399)" class="st4 st5 st6">i</text>
<text transform="matrix(0.583 0 0 0.583 51.3188 48.0976)" class="st4 st5 st6">1</text>
<g id="XMLID_146_">
	<g id="XMLID_147_">
		<g id="XMLID_149_">
			<path id="XMLID_152_" class="st7" d="M150.4,68.9c1,0.5,2.1,0.8,3.2,0.8c4.1,0,7.5-3.4,7.4-7.4c0-4-3.3-7.3-7.3-7.3
				c-2,0-3.9,0.8-5.2,2.1"/>
			<g id="XMLID_150_">
				<polygon id="XMLID_151_" class="st3" points="148.9,68 150.5,70.2 150.5,69 151.5,68.4 				"/>
			</g>
		</g>
	</g>
</g>
<text transform="matrix(1 0 0 1 153.0331 63.4719)" class="st4 st5 st6">i</text>
<text transform="matrix(0.583 0 0 0.583 154.8334 65.6296)" class="st4 st5 st6">2</text>
<text id="XMLID_13_" transform="matrix(1 0 0 1 -73.7328 95.3015)" class="st4 st5 st6">20 A</text>
<text id="XMLID_105_" transform="matrix(1 0 0 1 142.6005 48.7625)" class="st4 st5 st6">20i</text>
<g id="XMLID_74_">
	<line id="XMLID_57_" class="st4" x1="-71.8" y1="9.1" x2="-71.8" y2="0.7"/>
	<g id="XMLID_53_">
		<line id="XMLID_56_" class="st8" x1="-71.8" y1="9.1" x2="-71.8" y2="2.2"/>
		<g id="XMLID_54_">
			<polygon id="XMLID_55_" class="st3" points="-70.8,2.5 -71.8,0.7 -72.8,2.5 			"/>
		</g>
	</g>
</g>
<g id="XMLID_117_">
	<line id="XMLID_133_" class="st4" x1="19.2" y1="28.8" x2="19.2" y2="20.5"/>
	<g id="XMLID_119_">
		<line id="XMLID_132_" class="st8" x1="19.2" y1="28.8" x2="19.2" y2="21.9"/>
		<g id="XMLID_120_">
			<polygon id="XMLID_121_" class="st3" points="20.2,22.2 19.2,20.5 18.3,22.2 			"/>
		</g>
	</g>
</g>
<g id="XMLID_62_">
	<g id="XMLID_71_">
		<path id="XMLID_78_" class="st0" d="M-61.3-25.6l8.3-9.2l0,0c0-1.6,0-3.2,0-4.8"/>
		<polyline id="XMLID_77_" class="st0" points="-53.1,-34.8 -53.1,-34.7 -44.9,-25.6 		"/>
		<polyline id="XMLID_76_" class="st0" points="-44.9,-25.7 -44.9,-25.6 -53.1,-16.5 		"/>
		<line id="XMLID_75_" class="st0" x1="-53.2" y1="-16.5" x2="-61.3" y2="-25.6"/>
		<path id="XMLID_73_" class="st0" d="M-53.1-16.4c0,1.4,0,2.8,0,4.3"/>
	</g>
	<path id="XMLID_70_" class="st1" d="M-54.6-29.1c1,0,1.9,0,2.9,0"/>
	<path id="XMLID_69_" class="st1" d="M-54.6-21.6c1,0,1.9,0,2.9,0"/>
	<path id="XMLID_68_" class="st1" d="M-53.2-30.6c0,1,0,1.9,0,2.9"/>
</g>
<g id="XMLID_63_">
	<g id="XMLID_79_">
		<path id="XMLID_86_" class="st0" d="M70.1,47l8.3-9.2l0,0c0-1.6,0-3.2,0-4.8"/>
		<polyline id="XMLID_85_" class="st0" points="78.3,37.8 78.3,37.8 86.5,46.9 		"/>
		<polyline id="XMLID_84_" class="st0" points="86.5,46.9 86.5,46.9 78.3,56 		"/>
		<line id="XMLID_83_" class="st0" x1="78.2" y1="56" x2="70.1" y2="47"/>
		<path id="XMLID_82_" class="st0" d="M78.4,56.1c0,1.4,0,2.8,0,4.3"/>
	</g>
	<path id="XMLID_66_" class="st1" d="M76.8,43.4c1,0,1.9,0,2.9,0"/>
	<path id="XMLID_65_" class="st1" d="M76.8,50.9c1,0,1.9,0,2.9,0"/>
	<path id="XMLID_64_" class="st1" d="M78.2,41.9c0,1,0,1.9,0,2.9"/>
</g>
<g id="XMLID_17_">
	<g id="XMLID_61_">
		<g id="XMLID_90_">
			<line id="XMLID_93_" class="st2" x1="-33.8" y1="2.5" x2="-33.8" y2="-4.4"/>
			<g id="XMLID_91_">
				<polygon id="XMLID_92_" class="st3" points="-32.1,-3.9 -33.8,-6.9 -35.6,-3.9 				"/>
			</g>
		</g>
	</g>
	<g id="XMLID_36_">
		<path id="XMLID_60_" class="st0" d="M-42.1-1.2l8.3-9.2l0,0c0-1.6,0-3.2,0-4.8"/>
		<polyline id="XMLID_59_" class="st0" points="-33.9,-10.4 -33.8,-10.4 -25.6,-1.3 		"/>
		<polyline id="XMLID_34_" class="st0" points="-25.6,-1.3 -25.6,-1.3 -33.9,7.8 		"/>
		<line id="XMLID_33_" class="st0" x1="-34" y1="7.8" x2="-42.1" y2="-1.2"/>
		<path id="XMLID_32_" class="st0" d="M-33.8,8c0,1.4,0,2.8,0,4.3"/>
	</g>
</g>
<g id="XMLID_87_">
	<g id="XMLID_99_">
		<g id="XMLID_113_">
			<line id="XMLID_116_" class="st2" x1="132.3" y1="43" x2="132.3" y2="49.9"/>
			<g id="XMLID_114_">
				<polygon id="XMLID_115_" class="st3" points="130.6,49.4 132.3,52.4 134.1,49.4 				"/>
			</g>
		</g>
	</g>
	<g id="XMLID_88_">
		<path id="XMLID_31_" class="st0" d="M140.6,46.7l-8.3,9.2l0,0c0,1.6,0,3.2,0,4.8V78H78.2"/>
		<polyline id="XMLID_97_" class="st0" points="132.4,55.9 132.4,55.9 124.2,46.8 		"/>
		<polyline id="XMLID_96_" class="st0" points="124.2,46.8 124.2,46.8 132.4,37.7 		"/>
		<line id="XMLID_95_" class="st0" x1="132.5" y1="37.7" x2="140.6" y2="46.7"/>
		<path id="XMLID_94_" class="st0" d="M132.3,37.5c0-1.4,0-2.8,0-4.3V14.8h44.8V33"/>
	</g>
</g>
<path id="XMLID_98_" class="st0" d="M177.2,33.2c0,0.6,0,1.1,0,1.7c0,0.5,0,1.1,0,1.6c1.6,0.5,3.2,1.1,4.8,1.6
	c-3.2,1.1-6.5,2.2-9.7,3.2c3.3,1.1,6.5,2.2,9.8,3.3c-3.2,1.1-6.4,2.1-9.7,3.2c3.2,1.1,6.5,2.2,9.7,3.2c-3.3,1.1-6.5,2.2-9.8,3.3
	c1.6,0.5,3.2,1.1,4.8,1.6c0,1.1,0,2.1,0,3.2l0.1,18.9h-44.8"/>
<g id="XMLID_100_">
	<g id="XMLID_123_">
		<line id="XMLID_126_" class="st2" x1="177.2" y1="14.8" x2="185.3" y2="14.8"/>
		<g id="XMLID_124_">
			<circle id="XMLID_125_" class="st3" cx="185.2" cy="14.8" r="0.9"/>
		</g>
	</g>
</g>
<g id="XMLID_101_">
	<g id="XMLID_128_">
		<line id="XMLID_131_" class="st2" x1="177.2" y1="78" x2="185.3" y2="78"/>
		<g id="XMLID_129_">
			<circle id="XMLID_130_" class="st3" cx="185.2" cy="78" r="0.9"/>
		</g>
	</g>
</g>
</svg>
