<?xml version="1.0" encoding="utf-8"?>
<!-- Generator: Adobe Illustrator 19.0.0, SVG Export Plug-In . SVG Version: 6.00 Build 0)  -->
<svg version="1.1" id="Layer_1" xmlns="http://www.w3.org/2000/svg" xmlns:xlink="http://www.w3.org/1999/xlink" x="0px" y="0px"
	 viewBox="-273 262.3 244.5 89.7" style="enable-background:new -273 262.3 244.5 89.7;" xml:space="preserve">
<style type="text/css">
	.st0{fill:none;stroke:#231F20;stroke-linecap:round;stroke-linejoin:round;stroke-miterlimit:10;}
	.st1{fill:none;stroke:#231F20;stroke-linecap:square;stroke-linejoin:round;stroke-miterlimit:10;}
	.st2{fill:none;stroke:#231F20;stroke-linecap:round;stroke-linejoin:round;}
	.st3{fill:#231F20;}
	.st4{fill:#010101;}
	.st5{font-family:'TimesNewRomanPSMT';}
	.st6{font-size:6.48px;}
	.st7{fill:none;stroke:#231F20;stroke-width:0.5;stroke-linecap:round;stroke-linejoin:round;}
	.st8{fill:none;}
	.st9{fill:none;stroke:#231F20;stroke-width:0.5;stroke-miterlimit:10;}
	.st10{fill:#FFFFFF;stroke:#000000;stroke-miterlimit:10;}
</style>
<path id="XMLID_23_" class="st0" d="M-390.8,244.8c0.6,0,1.1,0,1.7,0c0.5,0,1.1,0,1.6,0c0.5-1.6,1.1-3.2,1.6-4.8
	c1.1,3.2,2.2,6.5,3.2,9.7c1.1-3.3,2.2-6.5,3.3-9.8c1.1,3.2,2.1,6.4,3.2,9.7c1.1-3.2,2.2-6.5,3.2-9.7c1.1,3.3,2.2,6.5,3.3,9.8
	c0.5-1.6,1.1-3.2,1.6-4.8c1.1,0,2.1,0,3.2,0"/>
<path id="XMLID_58_" class="st0" d="M-386.8,327.7c0,0.6,0,1.1,0,1.7c0,0.5,0,1.1,0,1.6c1.6,0.5,3.2,1.1,4.8,1.6
	c-3.2,1.1-6.5,2.2-9.7,3.2c3.3,1.1,6.5,2.2,9.8,3.3c-3.2,1.1-6.4,2.1-9.7,3.2c3.2,1.1,6.5,2.2,9.7,3.2c-3.3,1.1-6.5,2.2-9.8,3.3
	c1.6,0.5,3.2,1.1,4.8,1.6c0,1.1,0,2.1,0,3.2"/>
<g id="XMLID_35_">
	<path id="XMLID_21_" class="st0" d="M-392.7,281.3c4.9,0.1,9,4.1,9,9c0,5-4.1,9.2-9.1,9.1c-4.9,0-9.1-4.1-9.1-9.1
		C-401.9,285.4-397.6,281.3-392.7,281.3z"/>
	<path id="XMLID_20_" class="st1" d="M-394.6,286.1c1.2,0,2.4,0,3.6,0"/>
	<path id="XMLID_19_" class="st1" d="M-394.6,295.5c1.2,0,2.4,0,3.6,0"/>
	<path id="XMLID_18_" class="st1" d="M-392.8,284.3c0,1.2,0,2.4,0,3.6"/>
	<path id="XMLID_7_" class="st0" d="M-392.8,281.3c0-1.6,0-3.2,0-4.8"/>
	<path id="XMLID_8_" class="st0" d="M-392.8,299.6c0,1.4,0,2.8,0,4.3"/>
</g>
<g id="XMLID_24_">
	<path id="XMLID_30_" class="st0" d="M-248.6,304.5c4.9,0.1,9,4.1,9,9c0,5-4.1,9.2-9.1,9.1c-4.9,0-9.1-4.1-9.1-9.1
		S-253.6,304.4-248.6,304.5z"/>
	<path id="XMLID_29_" class="st1" d="M-250.5,309.3c1.2,0,2.4,0,3.6,0"/>
	<path id="XMLID_28_" class="st1" d="M-250.5,318.6c1.2,0,2.4,0,3.6,0"/>
	<path id="XMLID_27_" class="st1" d="M-248.7,307.5c0,1.2,0,2.4,0,3.6"/>
	<path id="XMLID_2_" class="st0" d="M-248.7,322.7c0,1.4,0,2.8,0,4.3v13.3h54.1v-17.6v-27.4v-18.7h-13.6c-1.1,0-2.1,0-3.2,0
		c-0.5,1.6-1.1,3.2-1.6,4.8c-1.1-3.3-2.2-6.5-3.3-9.8c-1,3.2-2.1,6.5-3.2,9.7c-1.1-3.3-2.1-6.5-3.2-9.7c-1.1,3.3-2.2,6.5-3.3,9.8
		c-1-3.2-2.1-6.5-3.2-9.7c-0.5,1.6-1.1,3.2-1.6,4.8c-0.5,0-1.1,0-1.6,0c-0.6,0-1.1,0-1.7,0h-14.6v23.1c0,1.6,0,3.2,0,4.8"/>
</g>
<g id="XMLID_6_">
	<path id="XMLID_14_" class="st0" d="M-364.6,262.3c4.9,0.1,9,4.1,9,9c0,5-4.1,9.2-9.1,9.1c-4.9,0-9.1-4.1-9.1-9.1
		C-373.9,266.4-369.6,262.3-364.6,262.3z"/>
	<path id="XMLID_10_" class="st0" d="M-364.8,262.3c0-1.6,0-3.2,0-4.8"/>
	<path id="XMLID_9_" class="st0" d="M-364.8,280.6c0,1.4,0,2.8,0,4.3"/>
	<g id="XMLID_11_">
		<g id="XMLID_46_">
			<line id="XMLID_51_" class="st2" x1="-364.8" y1="276.5" x2="-364.8" y2="268"/>
			<g id="XMLID_49_">
				<polygon id="XMLID_50_" class="st3" points="-362.5,268.6 -364.8,264.7 -367,268.6 				"/>
			</g>
		</g>
	</g>
</g>
<text transform="matrix(1 0 0 1 -343.5161 324.6015)" class="st4 st5 st6">V</text>
<text transform="matrix(1 0 0 1 -338.8367 326.7592)" class="st4 st5" style="font-size:3.7778px;">1</text>
<text id="XMLID_43_" transform="matrix(1 0 0 1 -346.4509 332.6015)" class="st4 st5 st6">20 V</text>
<text id="XMLID_102_" transform="matrix(1 0 0 1 -269.7843 314.7144)" class="st4 st5 st6">5 V</text>
<text transform="matrix(1 0 0 1 -343.4513 296.7381)" class="st4 st5 st6">R</text>
<text transform="matrix(1 0 0 1 -339.1288 298.8957)" class="st4 st5" style="font-size:3.7778px;">1</text>
<text id="XMLID_107_" transform="matrix(1 0 0 1 -58 277.7431)" class="st4 st5 st6">a</text>
<text id="XMLID_108_" transform="matrix(1 0 0 1 -57 340.342)" class="st4 st5 st6">b</text>
<text id="XMLID_47_" transform="matrix(1 0 0 1 -347.0343 304.7381)" class="st4 st5 st6">20 Ω</text>
<text id="XMLID_103_" transform="matrix(1 0 0 1 -229.0343 270.131)" class="st4 st5 st6">2 kΩ</text>
<text transform="matrix(1 0 0 1 -342.466 349.6015)" class="st4 st5 st6">i</text>
<text transform="matrix(1 0 0 1 -340.6659 351.7591)" class="st4 st5" style="font-size:3.7778px;">1</text>
<text id="XMLID_134_" transform="matrix(1 0 0 1 -257.8361 288.0175)" class="st4 st5 st6">i</text>
<g id="XMLID_12_">
	<g id="XMLID_15_">
		<g id="XMLID_22_">
			<g id="XMLID_38_">
				<path id="XMLID_44_" class="st7" d="M-389.1,382.2c1,0.5,2.1,0.8,3.2,0.8c4.1,0,7.5-3.4,7.4-7.4c0-4-3.3-7.3-7.3-7.3
					c-2,0-3.9,0.8-5.2,2.1"/>
				<g id="XMLID_39_">
					<polygon id="XMLID_42_" class="st3" points="-390.5,381.3 -389,383.5 -388.9,382.3 -387.9,381.7 					"/>
				</g>
			</g>
		</g>
	</g>
	<text transform="matrix(1 0 0 1 -386.4 376.7707)" class="st4 st5 st6">i</text>
	<text transform="matrix(1 0 0 1 -384.5999 378.9285)" class="st4 st5" style="font-size:3.7778px;">1</text>
</g>
<text id="XMLID_13_" transform="matrix(1 0 0 1 -346.7328 357.6015)" class="st4 st5 st6">20 A</text>
<text id="XMLID_105_" transform="matrix(1 0 0 1 -130.3995 311.0625)" class="st4 st5 st6">20i</text>
<g id="XMLID_74_">
	<line id="XMLID_57_" class="st8" x1="-344.8" y1="271.4" x2="-344.8" y2="263"/>
	<g id="XMLID_53_">
		<line id="XMLID_56_" class="st9" x1="-344.8" y1="271.4" x2="-344.8" y2="264.5"/>
		<g id="XMLID_54_">
			<polygon id="XMLID_55_" class="st3" points="-343.8,264.8 -344.8,263 -345.8,264.8 			"/>
		</g>
	</g>
</g>
<g id="XMLID_117_">
	<line id="XMLID_133_" class="st8" x1="-253.8" y1="291.1" x2="-253.8" y2="282.8"/>
	<g id="XMLID_119_">
		<line id="XMLID_132_" class="st9" x1="-253.8" y1="291.1" x2="-253.8" y2="284.2"/>
		<g id="XMLID_120_">
			<polygon id="XMLID_121_" class="st3" points="-252.8,284.5 -253.8,282.8 -254.7,284.5 			"/>
		</g>
	</g>
</g>
<g id="XMLID_62_">
	<g id="XMLID_71_">
		<path id="XMLID_78_" class="st0" d="M-334.3,236.7l8.3-9.2l0,0c0-1.6,0-3.2,0-4.8"/>
		<polyline id="XMLID_77_" class="st0" points="-326.1,227.5 -326.1,227.6 -317.9,236.7 		"/>
		<polyline id="XMLID_76_" class="st0" points="-317.9,236.6 -317.9,236.7 -326.1,245.8 		"/>
		<line id="XMLID_75_" class="st0" x1="-326.2" y1="245.8" x2="-334.3" y2="236.7"/>
		<path id="XMLID_73_" class="st0" d="M-326.1,245.9c0,1.4,0,2.8,0,4.3"/>
	</g>
	<path id="XMLID_70_" class="st1" d="M-327.6,233.2c1,0,1.9,0,2.9,0"/>
	<path id="XMLID_69_" class="st1" d="M-327.6,240.7c1,0,1.9,0,2.9,0"/>
	<path id="XMLID_68_" class="st1" d="M-326.2,231.7c0,1,0,1.9,0,2.9"/>
</g>
<g id="XMLID_17_">
	<g id="XMLID_61_">
		<g id="XMLID_90_">
			<line id="XMLID_93_" class="st2" x1="-306.8" y1="264.8" x2="-306.8" y2="257.9"/>
			<g id="XMLID_91_">
				<polygon id="XMLID_92_" class="st3" points="-305.1,258.4 -306.8,255.4 -308.6,258.4 				"/>
			</g>
		</g>
	</g>
	<g id="XMLID_36_">
		<path id="XMLID_60_" class="st0" d="M-315.1,261.1l8.3-9.2l0,0c0-1.6,0-3.2,0-4.8"/>
		<polyline id="XMLID_59_" class="st0" points="-306.9,251.9 -306.8,251.9 -298.6,261 		"/>
		<polyline id="XMLID_34_" class="st0" points="-298.6,261 -298.6,261 -306.9,270.1 		"/>
		<line id="XMLID_33_" class="st0" x1="-307" y1="270.1" x2="-315.1" y2="261.1"/>
		<path id="XMLID_32_" class="st0" d="M-306.8,270.3c0,1.4,0,2.8,0,4.3"/>
	</g>
</g>
<g id="XMLID_87_">
	<g id="XMLID_99_">
		<g id="XMLID_113_">
			<line id="XMLID_116_" class="st2" x1="-140.7" y1="305.3" x2="-140.7" y2="312.2"/>
			<g id="XMLID_114_">
				<polygon id="XMLID_115_" class="st3" points="-142.4,311.7 -140.7,314.7 -138.9,311.7 				"/>
			</g>
		</g>
	</g>
	<g id="XMLID_88_">
		<path id="XMLID_31_" class="st0" d="M-132.4,309l-8.3,9.2l0,0c0,1.6,0,3.2,0,4.8v17.3h-54.1"/>
		<polyline id="XMLID_97_" class="st0" points="-140.6,318.2 -140.6,318.2 -148.8,309.1 		"/>
		<polyline id="XMLID_96_" class="st0" points="-148.8,309.1 -148.8,309.1 -140.6,300 		"/>
		<polyline id="XMLID_1_" class="st0" points="-132.4,309 -140.5,300 -140.5,277.1 -95.8,277.1 -60,277.1 -60,340.3 -95.8,340.3 		
			"/>
	</g>
</g>
<line class="st0" x1="-95.8" y1="340.3" x2="-140.6" y2="340.3"/>
<path class="st10" d="M-106,299.8"/>
</svg>
