<?xml version="1.0" encoding="utf-8"?>
<!-- Generator: Adobe Illustrator 19.0.0, SVG Export Plug-In . SVG Version: 6.00 Build 0)  -->
<svg version="1.1" id="Layer_1" xmlns="http://www.w3.org/2000/svg" xmlns:xlink="http://www.w3.org/1999/xlink" x="0px" y="0px"
	 viewBox="0 0 154.7 74" style="enable-background:new 0 0 154.7 74;" xml:space="preserve">
<style type="text/css">
	.st0{fill:none;stroke:#231F20;stroke-linecap:round;stroke-linejoin:round;stroke-miterlimit:10;}
	.st1{fill:none;stroke:#231F20;stroke-linecap:square;stroke-linejoin:round;stroke-miterlimit:10;}
	.st2{fill:none;stroke:#231F20;stroke-linecap:round;stroke-linejoin:round;}
	.st3{fill:#231F20;}
	.st4{font-family:'TimesNewRomanPSMT';}
	.st5{font-size:6.48px;}
	.st6{fill:none;stroke:#231F20;stroke-width:0.5;stroke-linecap:round;stroke-linejoin:round;}
	.st7{fill:none;stroke:#231F20;stroke-width:0.5;stroke-miterlimit:10;}
	.st8{fill:none;}
</style>
<path id="XMLID_1_" class="st0" d="M-79.8-67.3c0.6,0,1.1,0,1.7,0c0.5,0,1.1,0,1.6,0c0.5-1.6,1.1-3.2,1.6-4.8
	c1.1,3.2,2.2,6.5,3.2,9.7c1.1-3.3,2.2-6.5,3.3-9.8c1.1,3.2,2.1,6.4,3.2,9.7c1.1-3.2,2.2-6.5,3.2-9.7c1.1,3.3,2.2,6.5,3.3,9.8
	c0.5-1.6,1.1-3.2,1.6-4.8c1.1,0,2.1,0,3.2,0"/>
<path id="XMLID_58_" class="st0" d="M-75.8,15.6c0,0.6,0,1.1,0,1.7c0,0.5,0,1.1,0,1.6c1.6,0.5,3.2,1.1,4.8,1.6
	c-3.2,1.1-6.5,2.2-9.7,3.2c3.3,1.1,6.5,2.2,9.8,3.3c-3.2,1.1-6.4,2.1-9.7,3.2c3.2,1.1,6.5,2.2,9.7,3.2c-3.3,1.1-6.5,2.2-9.8,3.3
	c1.6,0.5,3.2,1.1,4.8,1.6c0,1.1,0,2.1,0,3.2"/>
<path id="XMLID_92_" class="st0" d="M109.8,15.1h36.3l0,17.5c0,0.6,0,1.1,0,1.7c0,0.5,0,1.1,0,1.6c1.6,0.5,3.2,1.1,4.8,1.6
	c-3.2,1.1-6.5,2.2-9.7,3.2c3.3,1.1,6.5,2.2,9.8,3.3c-3.2,1.1-6.4,2.1-9.7,3.2c3.2,1.1,6.5,2.2,9.7,3.2c-3.3,1.1-6.5,2.2-9.8,3.3
	c1.6,0.5,3.2,1.1,4.8,1.6c0,1.1,0,2.1,0,3.2V69h-36.3"/>
<g id="XMLID_24_">
	<path id="XMLID_3_" class="st0" d="M-81.7-30.8c4.9,0.1,9,4.1,9,9c0,5-4.1,9.2-9.1,9.1c-4.9,0-9.1-4.1-9.1-9.1
		C-90.9-26.7-86.7-30.8-81.7-30.8z"/>
	<path id="XMLID_4_" class="st1" d="M-83.6-26c1.2,0,2.4,0,3.6,0"/>
	<path id="XMLID_5_" class="st1" d="M-83.6-16.6c1.2,0,2.4,0,3.6,0"/>
	<path id="XMLID_6_" class="st1" d="M-81.8-27.8c0,1.2,0,2.4,0,3.6"/>
	<path id="XMLID_7_" class="st0" d="M-81.8-30.8c0-1.6,0-3.2,0-4.8"/>
	<path id="XMLID_8_" class="st0" d="M-81.8-12.5c0,1.4,0,2.8,0,4.3"/>
</g>
<g id="XMLID_2_">
	<path id="XMLID_14_" class="st0" d="M-53.7-49.8c4.9,0.1,9,4.1,9,9c0,5-4.1,9.2-9.1,9.1c-4.9,0-9.1-4.1-9.1-9.1
		C-62.9-45.7-58.7-49.8-53.7-49.8z"/>
	<path id="XMLID_10_" class="st0" d="M-53.8-49.8c0-1.6,0-3.2,0-4.8"/>
	<path id="XMLID_9_" class="st0" d="M-53.8-31.5c0,1.4,0,2.8,0,4.3"/>
	<g id="XMLID_11_">
		<g id="XMLID_63_">
			<line id="XMLID_66_" class="st2" x1="-53.8" y1="-35.6" x2="-53.8" y2="-44.1"/>
			<g id="XMLID_64_">
				<polygon id="XMLID_65_" class="st3" points="-51.5,-43.5 -53.8,-47.4 -56,-43.5 				"/>
			</g>
		</g>
	</g>
</g>
<g id="XMLID_80_">
	<path id="XMLID_99_" class="st0" d="M19.7,53.7c-4.9-0.1-9-4.1-9-9c0-5,4.1-9.2,9.1-9.1c4.9,0,9.1,4.1,9.1,9.1
		C28.9,49.6,24.7,53.7,19.7,53.7z"/>
	<path id="XMLID_98_" class="st0" d="M19.8,53.7c0,1.6,0,3.2,0,4.8V69h29.7l-0.1-11.4c0-1.1,0-2.1,0-3.2c-1.6-0.5-3.2-1.1-4.8-1.6
		c3.3-1.1,6.5-2.2,9.8-3.3c-3.2-1.1-6.5-2.2-9.7-3.2c3.2-1.1,6.4-2.1,9.7-3.2c-3.3-1.1-6.5-2.2-9.8-3.3c3.2-1.1,6.5-2.2,9.7-3.2
		c-1.6-0.5-3.2-1.1-4.8-1.6c0-0.5,0-1.1,0-1.6c0-0.6,0-1.1,0-1.7V15.1"/>
	<path id="XMLID_71_" class="st0" d="M19.8,35.4c0-1.4,0-2.8,0-4.3v-16h48.9"/>
	<g id="XMLID_82_">
		<g id="XMLID_109_">
			<line id="XMLID_114_" class="st2" x1="19.8" y1="39.5" x2="19.8" y2="48.1"/>
			<g id="XMLID_112_">
				<polygon id="XMLID_113_" class="st3" points="17.6,47.4 19.8,51.3 22.1,47.4 				"/>
			</g>
		</g>
	</g>
</g>
<text id="XMLID_41_" transform="matrix(1 0 0 1 98.2115 47.1366)" class="st4 st5">L</text>
<text id="XMLID_123_" transform="matrix(1 0 0 1 88.7115 9.2631)" class="st4 st5">t = 0</text>
<text id="XMLID_43_" transform="matrix(1 0 0 1 -35.4733 20.5)" class="st4 st5">20 V</text>
<text transform="matrix(1 0 0 1 -32.4737 -15.3634)" class="st4 st5">R</text>
<text transform="matrix(0.583 0 0 0.583 -28.1514 -13.2057)" class="st4 st5">1</text>
<text transform="matrix(1 0 0 1 36.1162 43.5974)" class="st4 st5">R</text>
<text transform="matrix(0.583 0 0 0.583 40.4384 45.7551)" class="st4 st5">N</text>
<text id="XMLID_115_" transform="matrix(1 0 0 1 134.0263 48.1366)" class="st4 st5">R</text>
<text id="XMLID_47_" transform="matrix(1 0 0 1 -36.0567 -7.3634)" class="st4 st5">20 Ω</text>
<text transform="matrix(1 0 0 1 -31.4883 37.5)" class="st4 st5">i</text>
<text transform="matrix(0.583 0 0 0.583 -29.688 39.6577)" class="st4 st5">1</text>
<text transform="matrix(1 0 0 1 2.6536 43.5974)" class="st4 st5">i</text>
<text transform="matrix(0.583 0 0 0.583 4.4539 45.7551)" class="st4 st5">N</text>
<text id="XMLID_106_" transform="matrix(1 0 0 1 127.4415 8.7943)" class="st4 st5">i</text>
<g id="XMLID_12_">
	<g id="XMLID_15_">
		<g id="XMLID_22_">
			<g id="XMLID_27_">
				<path id="XMLID_30_" class="st6" d="M-78.1,70.1c1,0.5,2.1,0.8,3.2,0.8c4.1,0,7.5-3.4,7.4-7.4c0-4-3.3-7.3-7.3-7.3
					c-2,0-3.9,0.8-5.2,2.1"/>
				<g id="XMLID_28_">
					<polygon id="XMLID_29_" class="st3" points="-79.6,69.2 -78,71.3 -78,70.2 -76.9,69.6 					"/>
				</g>
			</g>
		</g>
	</g>
	<text transform="matrix(1 0 0 1 -75.4224 64.6692)" class="st4 st5">i</text>
	<text transform="matrix(0.583 0 0 0.583 -73.6221 66.827)" class="st4 st5">1</text>
</g>
<text id="XMLID_13_" transform="matrix(1 0 0 1 -35.7552 45.5)" class="st4 st5">20 A</text>
<g id="XMLID_74_">
	<line id="XMLID_79_" x1="-33.8" y1="-40.7" x2="-33.8" y2="-49.1"/>
	<g id="XMLID_75_">
		<line id="XMLID_78_" class="st7" x1="-33.8" y1="-40.7" x2="-33.8" y2="-47.6"/>
		<g id="XMLID_76_">
			<polygon id="XMLID_77_" class="st3" points="-32.8,-47.3 -33.8,-49.1 -34.8,-47.3 			"/>
		</g>
	</g>
</g>
<g id="XMLID_97_">
	<line id="XMLID_132_" x1="124.3" y1="10.8" x2="132.6" y2="10.8"/>
	<g id="XMLID_128_">
		<line id="XMLID_131_" class="st7" x1="124.3" y1="10.8" x2="131.2" y2="10.8"/>
		<g id="XMLID_129_">
			<polygon id="XMLID_130_" class="st3" points="130.9,11.8 132.6,10.8 130.9,9.8 			"/>
		</g>
	</g>
</g>
<g id="XMLID_34_">
	<g id="XMLID_18_">
		<path id="XMLID_32_" class="st0" d="M-33.8-65.6l8.3-9.2l0,0c0-1.6,0-3.2,0-4.8"/>
		<polyline id="XMLID_31_" class="st0" points="-25.6,-74.8 -25.6,-74.7 -17.4,-65.7 		"/>
		<polyline id="XMLID_25_" class="st0" points="-17.4,-65.7 -17.4,-65.7 -25.6,-56.6 		"/>
		<line id="XMLID_33_" class="st0" x1="-25.7" y1="-56.6" x2="-33.8" y2="-65.6"/>
		<path id="XMLID_19_" class="st0" d="M-25.6-56.4c0,1.4,0,2.8,0,4.3"/>
	</g>
	<path id="XMLID_21_" class="st1" d="M-27.2-69.2c1,0,1.9,0,2.9,0"/>
	<path id="XMLID_20_" class="st1" d="M-27.2-61.7c1,0,1.9,0,2.9,0"/>
	<path id="XMLID_23_" class="st1" d="M-25.7-70.6c0,1,0,1.9,0,2.9"/>
</g>
<g id="XMLID_17_">
	<g id="XMLID_35_">
		<g id="XMLID_53_">
			<line id="XMLID_56_" class="st2" x1="0.2" y1="-37.5" x2="0.2" y2="-44.4"/>
			<g id="XMLID_54_">
				<polygon id="XMLID_55_" class="st3" points="1.9,-43.9 0.2,-46.9 -1.6,-43.9 				"/>
			</g>
		</g>
	</g>
	<g id="XMLID_36_">
		<path id="XMLID_44_" class="st0" d="M-8.1-41.2l8.3-9.2l0,0c0-1.6,0-3.2,0-4.8"/>
		<polyline id="XMLID_42_" class="st0" points="0.1,-50.4 0.1,-50.4 8.3,-41.3 		"/>
		<polyline id="XMLID_39_" class="st0" points="8.3,-41.3 8.3,-41.3 0.1,-32.2 		"/>
		<line id="XMLID_38_" class="st0" x1="0" y1="-32.2" x2="-8.1" y2="-41.2"/>
		<path id="XMLID_37_" class="st0" d="M0.2-32.1c0,1.4,0,2.8,0,4.3"/>
	</g>
</g>
<text id="XMLID_111_" transform="matrix(1 0 0 1 -55.2556 9.2299)" class="st4 st5">−</text>
<text id="XMLID_110_" transform="matrix(1 0 0 1 -55.2557 1.9799)" class="st4 st5">+</text>
<path id="XMLID_45_" class="st0" d="M-61,42.4c0-0.6,0-1.2,0-1.8c-2,0-3.7-1.6-3.7-3.6c0-2.2,2.3-3.4,3.7-3.6
	c1.7-0.3,3.6,0.4,3.6,0.9c0,0.5-1.9,1.3-3.6,0.9c-1.5-0.3-3.7-1.6-3.6-3.7c0-2.1,2.2-3.3,3.7-3.6c1.7-0.3,3.5,0.6,3.5,1.1
	c0,0.5-1.9,1.1-3.6,0.8c-1.4-0.3-3.6-1.6-3.5-3.7c0-2,2.1-3.3,3.6-3.6c1.7-0.3,3.5,0.4,3.5,0.9c0,0.5-1.9,1.3-3.6,0.9
	c-1.4-0.3-3.7-1.5-3.6-3.7c0-1.7,1.6-3.4,3.6-3.6c0-0.6,0-1.2,0-1.8"/>
<g id="XMLID_46_">
	<g id="XMLID_84_">
		<g id="XMLID_91_">
			<path id="XMLID_67_" class="st8" d="M-64.5,5.8"/>
		</g>
		<g id="XMLID_85_">
			<path id="XMLID_90_" class="st0" d="M-64.5,9.2L-64.5,9.2c0,1.6,0,0,0,1.6"/>
			<polyline id="XMLID_89_" class="st0" points="-64.5,9.3 -64.5,9.2 -64.5,1.8 			"/>
			<path id="XMLID_88_" class="st0" d="M-64.5-10.9"/>
			<path id="XMLID_87_" class="st0" d="M-64.4-10.9"/>
			<path id="XMLID_86_" class="st0" d="M-64.6-3.4l0.1-7.6c0-1.4,0,0,0-1.4"/>
		</g>
	</g>
	<polyline id="XMLID_81_" class="st0" points="-58.1,1.8 -60.9,1.8 -68.4,1.8 -71.1,1.8 	"/>
	<path id="XMLID_72_" class="st0" d="M-58.1-5.9c-0.5,0.5-2.9,2.5-6.5,2.5c-0.7,0-3.8-0.1-6.5-2.5"/>
</g>
<g id="XMLID_50_">
	<polyline id="XMLID_49_" class="st0" points="28.9,-57.5 36.1,-57.5 45.5,-64.7 	"/>
	<line id="XMLID_51_" class="st0" x1="48.3" y1="-57.5" x2="57.7" y2="-57.5"/>
</g>
<g id="XMLID_57_">
	<g id="XMLID_68_">
		<polyline id="XMLID_70_" class="st0" points="28.9,-41 36.1,-41 45.5,-48.2 		"/>
		<line id="XMLID_69_" class="st0" x1="48.3" y1="-41" x2="57.7" y2="-41"/>
	</g>
	<g id="XMLID_83_">
		<g id="XMLID_117_">
			<path id="XMLID_120_" class="st6" d="M37.4-45.9c1.1-0.5,2.3-0.8,3.5-0.9c4.5-0.2,8.7,3.3,9.6,8"/>
			<g id="XMLID_118_">
				<polygon id="XMLID_119_" class="st3" points="40.8,-45.5 40.8,-46 37.5,-45.8 39.9,-48.1 39.5,-48.4 36.2,-45.2 				"/>
			</g>
		</g>
	</g>
</g>
<g id="XMLID_95_">
	<g id="XMLID_105_">
		<polyline id="XMLID_107_" class="st0" points="68.7,15.1 75.9,15.1 85.3,7.8 		"/>
		<path id="XMLID_94_" class="st0" d="M88.1,15.1h9.5h12.2l0,18.2c0,0.6,0,1.2,0,1.8c-2.1,0.2-3.6,1.8-3.6,3.6
			c0,2.2,2.2,3.3,3.6,3.7c1.6,0.4,3.6-0.4,3.6-0.9c0-0.5-1.9-1.2-3.5-0.9c-1.5,0.3-3.6,1.5-3.6,3.6c0,2.1,2.1,3.3,3.5,3.7
			c1.7,0.4,3.6-0.2,3.6-0.8c0-0.5-1.8-1.3-3.5-1.1c-1.6,0.2-3.7,1.5-3.7,3.6c0,2.1,2.1,3.4,3.6,3.7c1.7,0.3,3.6-0.4,3.6-0.9
			c0-0.5-1.9-1.3-3.6-0.9c-1.4,0.3-3.7,1.5-3.7,3.6c0,2,1.7,3.6,3.7,3.6c0,0.6,0,1.2,0,1.8l0,8.7H49.5"/>
	</g>
	<g id="XMLID_96_">
		<g id="XMLID_101_">
			<path id="XMLID_104_" class="st6" d="M77.2,10.1c1.1-0.5,2.3-0.8,3.5-0.9c4.5-0.2,8.7,3.3,9.6,8"/>
			<g id="XMLID_102_">
				<polygon id="XMLID_103_" class="st3" points="80.6,10.6 80.6,10.1 77.3,10.3 79.7,8 79.4,7.6 76,10.8 				"/>
			</g>
		</g>
	</g>
</g>
</svg>
