<?xml version="1.0" encoding="utf-8"?>
<!-- Generator: Adobe Illustrator 19.0.0, SVG Export Plug-In . SVG Version: 6.00 Build 0)  -->
<svg version="1.1" id="Layer_1" xmlns="http://www.w3.org/2000/svg" xmlns:xlink="http://www.w3.org/1999/xlink" x="0px" y="0px"
	 viewBox="0 0 193.7 78.4" style="enable-background:new 0 0 193.7 78.4;" xml:space="preserve">
<style type="text/css">
	.st0{fill:none;stroke:#231F20;stroke-linecap:round;stroke-linejoin:round;stroke-miterlimit:10;}
	.st1{fill:none;stroke:#231F20;stroke-linecap:square;stroke-linejoin:round;stroke-miterlimit:10;}
	.st2{fill:none;stroke:#231F20;stroke-linecap:round;stroke-linejoin:round;}
	.st3{fill:#231F20;}
	.st4{font-family:'TimesNewRomanPSMT';}
	.st5{font-size:6.48px;}
	.st6{fill:none;stroke:#231F20;stroke-width:0.5;stroke-linecap:round;stroke-linejoin:round;}
	.st7{fill:none;stroke:#231F20;stroke-width:0.5;stroke-miterlimit:10;}
	.st8{fill:none;}
</style>
<path id="XMLID_1_" class="st0" d="M-66.4-76.5c0.6,0,1.1,0,1.7,0c0.5,0,1.1,0,1.6,0c0.5-1.6,1.1-3.2,1.6-4.8
	c1.1,3.2,2.2,6.5,3.2,9.7c1.1-3.3,2.2-6.5,3.3-9.8c1.1,3.2,2.1,6.4,3.2,9.7c1.1-3.2,2.2-6.5,3.2-9.7c1.1,3.3,2.2,6.5,3.3,9.8
	c0.5-1.6,1.1-3.2,1.6-4.8c1.1,0,2.1,0,3.2,0"/>
<path id="XMLID_58_" class="st0" d="M-62.4,6.4c0,0.6,0,1.1,0,1.7c0,0.5,0,1.1,0,1.6c1.6,0.5,3.2,1.1,4.8,1.6
	c-3.2,1.1-6.5,2.2-9.7,3.2c3.3,1.1,6.5,2.2,9.8,3.3c-3.2,1.1-6.4,2.1-9.7,3.2c3.2,1.1,6.5,2.2,9.7,3.2c-3.3,1.1-6.5,2.2-9.8,3.3
	c1.6,0.5,3.2,1.1,4.8,1.6c0,1.1,0,2.1,0,3.2"/>
<path id="XMLID_100_" class="st0" d="M142.2,69.3v-15c0-1.1,0-2.1,0-3.2c-1.6-0.5-3.2-1.1-4.8-1.6c3.3-1.1,6.5-2.2,9.8-3.3
	c-3.2-1.1-6.5-2.2-9.7-3.2c3.2-1.1,6.4-2.1,9.7-3.2c-3.3-1.1-6.5-2.2-9.8-3.3c3.2-1.1,6.5-2.2,9.7-3.2c-1.6-0.5-3.2-1.1-4.8-1.6
	c0-0.5,0-1.1,0-1.6c0-0.6,0-1.1,0-1.7V15.5"/>
<path id="XMLID_98_" class="st0" d="M52.7,69.3V55.1c0-1.1,0-2.1,0-3.2c-1.6-0.5-3.2-1.1-4.8-1.6c3.3-1.1,6.5-2.2,9.8-3.3
	c-3.2-1.1-6.5-2.2-9.7-3.2c3.2-1.1,6.4-2.1,9.7-3.2c-3.3-1.1-6.5-2.2-9.8-3.3c3.2-1.1,6.5-2.2,9.7-3.2c-1.6-0.5-3.2-1.1-4.8-1.6
	c0-0.5,0-1.1,0-1.6c0-0.6,0-1.1,0-1.7V15.5"/>
<g id="XMLID_24_">
	<path id="XMLID_3_" class="st0" d="M-68.2-40c4.9,0.1,9,4.1,9,9c0,5-4.1,9.2-9.1,9.1c-4.9,0-9.1-4.1-9.1-9.1
		C-77.5-36-73.2-40.1-68.2-40z"/>
	<path id="XMLID_4_" class="st1" d="M-70.1-35.2c1.2,0,2.4,0,3.6,0"/>
	<path id="XMLID_5_" class="st1" d="M-70.1-25.8c1.2,0,2.4,0,3.6,0"/>
	<path id="XMLID_6_" class="st1" d="M-68.3-37c0,1.2,0,2.4,0,3.6"/>
	<path id="XMLID_7_" class="st0" d="M-68.3-40.1c0-1.6,0-3.2,0-4.8"/>
	<path id="XMLID_8_" class="st0" d="M-68.3-21.7c0,1.4,0,2.8,0,4.3"/>
</g>
<g id="XMLID_2_">
	<path id="XMLID_14_" class="st0" d="M-40.2-59c4.9,0.1,9,4.1,9,9c0,5-4.1,9.2-9.1,9.1c-4.9,0-9.1-4.1-9.1-9.1
		C-49.5-54.9-45.2-59-40.2-59z"/>
	<path id="XMLID_10_" class="st0" d="M-40.3-59c0-1.6,0-3.2,0-4.8"/>
	<path id="XMLID_9_" class="st0" d="M-40.3-40.7c0,1.4,0,2.8,0,4.3"/>
	<g id="XMLID_11_">
		<g id="XMLID_63_">
			<line id="XMLID_66_" class="st2" x1="-40.3" y1="-44.8" x2="-40.3" y2="-53.4"/>
			<g id="XMLID_64_">
				<polygon id="XMLID_65_" class="st3" points="-38.1,-52.7 -40.3,-56.6 -42.6,-52.7 				"/>
			</g>
		</g>
	</g>
</g>
<g id="XMLID_60_">
	<path id="XMLID_97_" class="st0" d="M26.9,33.1c4.9,0.1,9,4.1,9,9c0,5-4.1,9.2-9.1,9.1c-4.9,0-9.1-4.1-9.1-9.1
		C17.6,37.1,21.9,33,26.9,33.1z"/>
	<path id="XMLID_145_" class="st0" d="M26.8,33c0-1.6,0-3.2,0-4.8V15.5h30.9"/>
	<path id="XMLID_95_" class="st0" d="M26.8,51.4c0,1.4,0,2.8,0,4.3"/>
	<g id="XMLID_71_">
		<g id="XMLID_82_">
			<line id="XMLID_94_" class="st2" x1="26.8" y1="47.2" x2="26.8" y2="38.7"/>
			<g id="XMLID_92_">
				<polygon id="XMLID_93_" class="st3" points="29,39.3 26.8,35.4 24.5,39.3 				"/>
			</g>
		</g>
	</g>
</g>
<text transform="matrix(1 0 0 1 -19.1088 3.2701)" class="st4 st5">V</text>
<text transform="matrix(0.583 0 0 0.583 -14.4291 5.4278)" class="st4 st5">1</text>
<text transform="matrix(1 0 0 1 170.1412 49.7701)" class="st4 st5">v</text>
<text transform="matrix(0.583 0 0 0.583 173.3815 51.9278)" class="st4 st5">1</text>
<text id="XMLID_43_" transform="matrix(1 0 0 1 -22.0436 11.2701)" class="st4 st5">20 V</text>
<text transform="matrix(1 0 0 1 -19.0439 -24.5933)" class="st4 st5">R</text>
<text transform="matrix(0.583 0 0 0.583 -14.7217 -22.4356)" class="st4 st5">1</text>
<text id="XMLID_47_" transform="matrix(1 0 0 1 113.123 8.4054)" class="st4 st5">2 Ω</text>
<text id="XMLID_148_" transform="matrix(1 0 0 1 122.123 42.3795)" class="st4 st5">10 Ω</text>
<text id="XMLID_149_" transform="matrix(1 0 0 1 164.623 42.3795)" class="st4 st5">40 Ω</text>
<text id="XMLID_147_" transform="matrix(1 0 0 1 81.6449 9.4054)" class="st4 st5">t = 0</text>
<text id="XMLID_146_" transform="matrix(1 0 0 1 83.123 43.3793)" class="st4 st5">2 H</text>
<text id="XMLID_119_" transform="matrix(1 0 0 1 56.6447 55.6043)" class="st4 st5">0.1 Ω</text>
<text transform="matrix(1 0 0 1 -18.0586 28.2701)" class="st4 st5">i</text>
<text transform="matrix(0.583 0 0 0.583 -16.2583 30.4278)" class="st4 st5">1</text>
<text transform="matrix(1 0 0 1 81.1232 61.0201)" class="st4 st5">i</text>
<text transform="matrix(0.583 0 0 0.583 82.9235 63.1778)" class="st4 st5">L</text>
<text transform="matrix(1 0 0 1 85.2311 61.0201)" class="st4 st5">(t)</text>
<g id="XMLID_12_">
	<g id="XMLID_15_">
		<g id="XMLID_22_">
			<g id="XMLID_27_">
				<path id="XMLID_30_" class="st6" d="M-64.7,60.9c1,0.5,2.1,0.8,3.2,0.8c4.1,0,7.5-3.4,7.4-7.4c0-4-3.3-7.3-7.3-7.3
					c-2,0-3.9,0.8-5.2,2.1"/>
				<g id="XMLID_28_">
					<polygon id="XMLID_29_" class="st3" points="-66.1,60 -64.6,62.1 -64.5,60.9 -63.5,60.4 					"/>
				</g>
			</g>
		</g>
	</g>
	<text transform="matrix(1 0 0 1 -61.9926 55.4393)" class="st4 st5">i</text>
	<text transform="matrix(0.583 0 0 0.583 -60.1923 57.597)" class="st4 st5">1</text>
</g>
<text id="XMLID_13_" transform="matrix(1 0 0 1 -22.3254 36.2701)" class="st4 st5">20 A</text>
<text id="XMLID_117_" transform="matrix(1 0 0 1 2.6746 43.3794)" class="st4 st5">20 A</text>
<g id="XMLID_74_">
	<line id="XMLID_79_" x1="-20.4" y1="-49.9" x2="-20.4" y2="-58.3"/>
	<g id="XMLID_75_">
		<line id="XMLID_78_" class="st7" x1="-20.4" y1="-49.9" x2="-20.4" y2="-56.9"/>
		<g id="XMLID_76_">
			<polygon id="XMLID_77_" class="st3" points="-19.4,-56.6 -20.4,-58.3 -21.4,-56.6 			"/>
		</g>
	</g>
</g>
<g id="XMLID_150_">
	<line id="XMLID_164_" x1="93.1" y1="55.5" x2="93.1" y2="63.9"/>
	<g id="XMLID_160_">
		<line id="XMLID_163_" class="st7" x1="93.1" y1="55.5" x2="93.1" y2="62.4"/>
		<g id="XMLID_161_">
			<polygon id="XMLID_162_" class="st3" points="92.1,62.1 93.1,63.9 94.1,62.1 			"/>
		</g>
	</g>
</g>
<g id="XMLID_34_">
	<g id="XMLID_18_">
		<path id="XMLID_32_" class="st0" d="M-20.4-74.8l8.3-9.2l0,0c0-1.6,0-3.2,0-4.8"/>
		<polyline id="XMLID_31_" class="st0" points="-12.2,-84 -12.1,-84 -4,-74.9 		"/>
		<polyline id="XMLID_25_" class="st0" points="-4,-74.9 -4,-74.9 -12.2,-65.8 		"/>
		<line id="XMLID_33_" class="st0" x1="-12.3" y1="-65.8" x2="-20.4" y2="-74.8"/>
		<path id="XMLID_19_" class="st0" d="M-12.1-65.7c0,1.4,0,2.8,0,4.3"/>
	</g>
	<path id="XMLID_21_" class="st1" d="M-13.7-78.4c1,0,1.9,0,2.9,0"/>
	<path id="XMLID_20_" class="st1" d="M-13.7-70.9c1,0,1.9,0,2.9,0"/>
	<path id="XMLID_23_" class="st1" d="M-12.3-79.8c0,1,0,1.9,0,2.9"/>
</g>
<g id="XMLID_17_">
	<g id="XMLID_35_">
		<g id="XMLID_53_">
			<line id="XMLID_56_" class="st2" x1="13.6" y1="-46.7" x2="13.6" y2="-53.6"/>
			<g id="XMLID_54_">
				<polygon id="XMLID_55_" class="st3" points="15.3,-53.1 13.6,-56.2 11.8,-53.1 				"/>
			</g>
		</g>
	</g>
	<g id="XMLID_36_">
		<path id="XMLID_44_" class="st0" d="M5.3-50.4l8.3-9.2l0,0c0-1.6,0-3.2,0-4.8"/>
		<polyline id="XMLID_42_" class="st0" points="13.5,-59.6 13.6,-59.6 21.8,-50.5 		"/>
		<polyline id="XMLID_39_" class="st0" points="21.8,-50.5 21.8,-50.5 13.5,-41.4 		"/>
		<line id="XMLID_38_" class="st0" x1="13.4" y1="-41.4" x2="5.3" y2="-50.4"/>
		<path id="XMLID_37_" class="st0" d="M13.6-41.3c0,1.4,0,2.8,0,4.3"/>
	</g>
</g>
<text id="XMLID_111_" transform="matrix(1 0 0 1 -41.8259 0)" class="st4 st5">−</text>
<text id="XMLID_155_" transform="matrix(1 0 0 1 177.924 67.5)" class="st4 st5">−</text>
<text id="XMLID_110_" transform="matrix(1 0 0 1 -41.8259 -7.25)" class="st4 st5">+</text>
<text id="XMLID_154_" transform="matrix(1 0 0 1 177.924 21.75)" class="st4 st5">+</text>
<path id="XMLID_45_" class="st0" d="M-47.5,33.2c0-0.6,0-1.2,0-1.8c-2,0-3.7-1.6-3.7-3.6c0-2.2,2.3-3.4,3.7-3.6
	c1.7-0.3,3.6,0.4,3.6,0.9c0,0.5-1.9,1.3-3.6,0.9c-1.5-0.3-3.7-1.6-3.6-3.7c0-2.1,2.2-3.3,3.7-3.6c1.7-0.3,3.5,0.6,3.5,1.1
	c0,0.5-1.9,1.1-3.6,0.8c-1.4-0.3-3.6-1.6-3.5-3.7c0-2,2.1-3.3,3.6-3.6c1.7-0.3,3.5,0.4,3.5,0.9c0,0.5-1.9,1.3-3.6,0.9
	c-1.4-0.3-3.7-1.5-3.6-3.7c0-1.7,1.6-3.4,3.6-3.6c0-0.6,0-1.2,0-1.8"/>
<path id="XMLID_99_" class="st0" d="M99.5,15.5v13.1c0,0.6,0,1.2,0,1.8c-2.1,0.2-3.6,1.8-3.6,3.6c0,2.2,2.2,3.3,3.6,3.7
	c1.6,0.4,3.6-0.4,3.6-0.9c0-0.5-1.9-1.2-3.5-0.9c-1.5,0.3-3.6,1.5-3.6,3.6c0,2.1,2.1,3.3,3.5,3.7c1.7,0.4,3.6-0.2,3.6-0.8
	c0-0.5-1.8-1.3-3.5-1.1c-1.6,0.2-3.7,1.5-3.7,3.6c0,2.1,2.1,3.4,3.6,3.7c1.7,0.3,3.6-0.4,3.6-0.9c0-0.5-1.9-1.3-3.6-0.9
	c-1.4,0.3-3.7,1.5-3.7,3.6c0,2,1.7,3.6,3.7,3.6c0,0.6,0,1.2,0,1.8v13.6"/>
<g id="XMLID_46_">
	<g id="XMLID_84_">
		<g id="XMLID_91_">
			<path id="XMLID_67_" class="st8" d="M-51.1-3.4"/>
		</g>
		<g id="XMLID_85_">
			<path id="XMLID_90_" class="st0" d="M-51.1,0L-51.1,0c0,1.6,0,0,0,1.6"/>
			<polyline id="XMLID_89_" class="st0" points="-51.1,0 -51.1,0 -51.1,-7.4 			"/>
			<path id="XMLID_88_" class="st0" d="M-51.1-20.2"/>
			<path id="XMLID_87_" class="st0" d="M-50.9-20.2"/>
			<path id="XMLID_86_" class="st0" d="M-51.2-12.7l0.1-7.6c0-1.4,0,0,0-1.4"/>
		</g>
	</g>
	<polyline id="XMLID_81_" class="st0" points="-44.7,-7.4 -47.5,-7.4 -54.9,-7.4 -57.7,-7.4 	"/>
	<path id="XMLID_72_" class="st0" d="M-44.7-15.2c-0.5,0.5-2.9,2.5-6.5,2.5c-0.7,0-3.8-0.1-6.5-2.5"/>
</g>
<g id="XMLID_49_">
	<polyline id="XMLID_50_" class="st0" points="38.7,-65.8 47.7,-65.8 59.4,-74.9 	"/>
	<line id="XMLID_51_" class="st0" x1="62.9" y1="-65.8" x2="74.8" y2="-65.8"/>
</g>
<g id="XMLID_57_">
	<g id="XMLID_68_">
		<polyline id="XMLID_70_" class="st0" points="38.7,-49.6 47.7,-49.6 59.4,-58.6 		"/>
		<line id="XMLID_69_" class="st0" x1="62.9" y1="-49.6" x2="74.8" y2="-49.6"/>
	</g>
	<g id="XMLID_83_">
		<g id="XMLID_102_">
			<path id="XMLID_105_" class="st6" d="M49-55.6c1.4-0.8,3-1.2,4.7-1.3c5.7-0.2,10.9,4.1,11.9,10"/>
			<g id="XMLID_103_">
				<polygon id="XMLID_104_" class="st3" points="52.5,-55.3 52.4,-55.8 49.1,-55.5 51.4,-57.8 51.1,-58.2 47.8,-54.9 				"/>
			</g>
		</g>
	</g>
</g>
<g id="XMLID_107_">
	<g id="XMLID_116_">
		<polyline id="XMLID_118_" class="st0" points="57.6,15.5 66.6,15.5 78.4,6.4 		"/>
		<path id="XMLID_96_" class="st0" d="M81.9,15.5h11.8l11.9-0.1c1.1,0,2.1,0,3.2,0c0.5-1.6,1.1-3.2,1.6-4.8c1.1,3.3,2.2,6.5,3.3,9.8
			c1.1-3.2,2.2-6.5,3.2-9.7c1.1,3.2,2.1,6.4,3.2,9.7c1.1-3.3,2.2-6.5,3.3-9.8c1.1,3.2,2.2,6.5,3.2,9.7c0.5-1.6,1.1-3.2,1.6-4.8
			c0.5,0,1.1,0,1.6,0c0.6,0,1.1,0,1.7,0h52.2c0,0,0,13.1,0,13.7c0,0.6,0,1.1,0,1.7c0,0.5,0,1.1,0,1.6c1.6,0.5,3.2,1.1,4.8,1.6
			c-3.2,1.1-6.5,2.2-9.7,3.2c3.3,1.1,6.5,2.2,9.8,3.3c-3.2,1.1-6.4,2.1-9.7,3.2c3.2,1.1,6.5,2.2,9.7,3.2c-3.3,1.1-6.5,2.2-9.8,3.3
			c1.6,0.5,3.2,1.1,4.8,1.6c0,1.1,0,2.1,0,3.2v14.2H26.8V55.6"/>
	</g>
	<g id="XMLID_108_">
		<g id="XMLID_112_">
			<path id="XMLID_115_" class="st6" d="M68,9.4c1.4-0.8,3-1.2,4.7-1.3c5.7-0.2,10.9,4.1,11.9,10"/>
			<g id="XMLID_113_">
				<polygon id="XMLID_114_" class="st3" points="71.4,9.7 71.4,9.2 68.1,9.6 70.4,7.2 70,6.9 66.8,10.2 				"/>
			</g>
		</g>
	</g>
</g>
<text transform="matrix(1 0 0 1 170.5832 6.4056)" class="st4 st5">i</text>
<text transform="matrix(0.583 0 0 0.583 172.3835 8.5633)" class="st4 st5">1</text>
<g id="XMLID_106_">
	<line id="XMLID_173_" x1="167.9" y1="10.4" x2="176.2" y2="10.4"/>
	<g id="XMLID_169_">
		<line id="XMLID_172_" class="st7" x1="167.9" y1="10.4" x2="174.8" y2="10.4"/>
		<g id="XMLID_170_">
			<polygon id="XMLID_171_" class="st3" points="174.5,11.4 176.2,10.4 174.5,9.4 			"/>
		</g>
	</g>
</g>
</svg>
