<?xml version="1.0" encoding="utf-8"?>
<!-- Generator: Adobe Illustrator 19.0.0, SVG Export Plug-In . SVG Version: 6.00 Build 0)  -->
<svg version="1.1" id="Layer_1" xmlns="http://www.w3.org/2000/svg" xmlns:xlink="http://www.w3.org/1999/xlink" x="0px" y="0px"
	 viewBox="0 0 185 167.5" style="enable-background:new 0 0 185 167.5;" xml:space="preserve">
<style type="text/css">
	.st0{fill:none;stroke:#231F20;stroke-linecap:round;stroke-linejoin:round;stroke-miterlimit:10;}
	.st1{fill:none;stroke:#231F20;stroke-linecap:square;stroke-linejoin:round;stroke-miterlimit:10;}
	.st2{fill:none;stroke:#231F20;stroke-linecap:round;stroke-linejoin:round;}
	.st3{fill:#231F20;}
	.st4{font-family:'TimesNewRomanPSMT';}
	.st5{font-size:6.48px;}
	.st6{fill:none;stroke:#231F20;stroke-width:0.5;stroke-miterlimit:10;}
</style>
<path id="XMLID_12_" class="st0" d="M-145.5,19.1c0.6,0,1.1,0,1.7,0c0.5,0,1.1,0,1.6,0c0.5-1.6,1.1-3.2,1.6-4.8
	c1.1,3.2,2.2,6.5,3.2,9.7c1.1-3.3,2.2-6.5,3.3-9.8c1.1,3.2,2.1,6.4,3.2,9.7c1.1-3.2,2.2-6.5,3.2-9.7c1.1,3.3,2.2,6.5,3.3,9.8
	c0.5-1.6,1.1-3.2,1.6-4.8c1.1,0,2.1,0,3.2,0"/>
<path id="XMLID_24_" class="st0" d="M33.9,94V57h49.5c0.6,0,1.1,0,1.7,0c0.5,0,1.1,0,1.6,0c0.5-1.6,1.1-3.2,1.6-4.8
	c1.1,3.2,2.2,6.5,3.2,9.7c1.1-3.3,2.2-6.5,3.3-9.8c1.1,3.2,2.1,6.4,3.2,9.7c1.1-3.2,2.2-6.5,3.2-9.7c1.1,3.3,2.2,6.5,3.3,9.8
	c0.5-1.6,1.1-3.2,1.6-4.8c1.1,0,2.1,0,3.2,0H169V94"/>
<path id="XMLID_58_" class="st0" d="M-141.5,102c0,0.6,0,1.1,0,1.7c0,0.5,0,1.1,0,1.6c1.6,0.5,3.2,1.1,4.8,1.6
	c-3.2,1.1-6.5,2.2-9.7,3.2c3.3,1.1,6.5,2.2,9.8,3.3c-3.2,1.1-6.4,2.1-9.7,3.2c3.2,1.1,6.5,2.2,9.7,3.2c-3.3,1.1-6.5,2.2-9.8,3.3
	c1.6,0.5,3.2,1.1,4.8,1.6c0,1.1,0,2.1,0,3.2"/>
<g id="XMLID_35_">
	<path id="XMLID_2_" class="st0" d="M-147.3,55.6c4.9,0.1,9,4.1,9,9c0,5-4.1,9.2-9.1,9.1c-4.9,0-9.1-4.1-9.1-9.1
		C-156.5,59.6-152.3,55.5-147.3,55.6z"/>
	<path id="XMLID_3_" class="st1" d="M-149.2,60.4c1.2,0,2.4,0,3.6,0"/>
	<path id="XMLID_4_" class="st1" d="M-149.2,69.8c1.2,0,2.4,0,3.6,0"/>
	<path id="XMLID_5_" class="st1" d="M-147.4,58.6c0,1.2,0,2.4,0,3.6"/>
	<path id="XMLID_6_" class="st0" d="M-147.4,55.5c0-1.6,0-3.2,0-4.8"/>
	<path id="XMLID_7_" class="st0" d="M-147.4,73.9c0,1.4,0,2.8,0,4.3"/>
</g>
<g id="XMLID_16_">
	<path id="XMLID_22_" class="st0" d="M34,119.1c4.9,0.1,9,4.1,9,9c0,5-4.1,9.2-9.1,9.1c-4.9,0-9.1-4.1-9.1-9.1
		C24.8,123.1,29,119,34,119.1z"/>
	<path id="XMLID_21_" class="st1" d="M32.1,123.9c1.2,0,2.4,0,3.6,0"/>
	<path id="XMLID_20_" class="st1" d="M32.1,133.3c1.2,0,2.4,0,3.6,0"/>
	<path id="XMLID_19_" class="st1" d="M33.9,122.1c0,1.2,0,2.4,0,3.6"/>
	<g id="XMLID_15_">
		<g id="XMLID_42_">
			<path id="XMLID_46_" class="st2" d="M33.9,119c0-1.6,0-3.2,0-4.8V94l12.5,0c0.6,0,1.1,0,1.7,0c0.5,0,1.1,0,1.6,0
				c0.5-1.6,1.1-3.2,1.6-4.8c1.1,3.2,2.2,6.5,3.2,9.7c1.1-3.3,2.2-6.5,3.3-9.8c1.1,3.2,2.1,6.4,3.2,9.7c1.1-3.2,2.2-6.5,3.2-9.7
				c1.1,3.3,2.2,6.5,3.3,9.8c0.5-1.6,1.1-3.2,1.6-4.8c1.1,0,2.1,0,3.2,0L124,94c0.6,0,1.1,0,1.7,0c0.5,0,1.1,0,1.6,0
				c0.5-1.6,1.1-3.2,1.6-4.8c1.1,3.2,2.2,6.5,3.2,9.7c1.1-3.3,2.2-6.5,3.3-9.8c1.1,3.2,2.1,6.4,3.2,9.7c1.1-3.2,2.2-6.5,3.2-9.7
				c1.1,3.3,2.2,6.5,3.3,9.8c0.5-1.6,1.1-3.2,1.6-4.8c1.1,0,2.1,0,3.2,0h26.8"/>
			<g id="XMLID_44_">
				<circle id="XMLID_45_" class="st3" cx="176.7" cy="94" r="0.9"/>
			</g>
		</g>
	</g>
	<path id="XMLID_23_" class="st0" d="M96.4,94v18.7c0,0.6,0,1.1,0,1.7c0,0.5,0,1.1,0,1.6c1.6,0.5,3.2,1.1,4.8,1.6
		c-3.2,1.1-6.5,2.2-9.7,3.2c3.3,1.1,6.5,2.2,9.8,3.3c-3.2,1.1-6.4,2.1-9.7,3.2c3.2,1.1,6.5,2.2,9.7,3.2c-3.3,1.1-6.5,2.2-9.8,3.3
		c1.6,0.5,3.2,1.1,4.8,1.6c0,1.1,0,2.1,0,3.2v19H33.9v-16.1c0-1.4,0-2.8,0-4.3"/>
</g>
<g id="XMLID_11_">
	<path id="XMLID_14_" class="st0" d="M-119.3,36.6c4.9,0.1,9,4.1,9,9c0,5-4.1,9.2-9.1,9.1c-4.9,0-9.1-4.1-9.1-9.1
		C-128.5,40.7-124.3,36.6-119.3,36.6z"/>
	<path id="XMLID_10_" class="st0" d="M-119.4,36.6c0-1.6,0-3.2,0-4.8"/>
	<path id="XMLID_9_" class="st0" d="M-119.4,54.9c0,1.4,0,2.8,0,4.3"/>
	<g id="XMLID_8_">
		<g id="XMLID_184_">
			<line id="XMLID_187_" class="st2" x1="-119.4" y1="50.8" x2="-119.4" y2="42.2"/>
			<g id="XMLID_185_">
				<polygon id="XMLID_186_" class="st3" points="-117.2,42.9 -119.4,39 -121.7,42.9 				"/>
			</g>
		</g>
	</g>
</g>
<g id="XMLID_27_">
	<path id="XMLID_37_" class="st0" d="M105.3,22.8c-0.1,4.9-4.1,9-9,9c-5,0-9.2-4.1-9.1-9.1c0-4.9,4.1-9.1,9.1-9.1
		C101.2,13.6,105.3,17.8,105.3,22.8z"/>
	<path id="XMLID_25_" class="st0" d="M105.3,22.7c1.6,0,3.2,0,4.8,0H169v34.4"/>
	<path id="XMLID_17_" class="st0" d="M87,22.7c-1.4,0-2.8,0-4.3,0H33.9v35.9"/>
	<g id="XMLID_28_">
		<g id="XMLID_51_">
			<line id="XMLID_54_" class="st2" x1="91.1" y1="22.7" x2="99.7" y2="22.7"/>
			<g id="XMLID_52_">
				<polygon id="XMLID_53_" class="st3" points="99,25 102.9,22.7 99,20.5 				"/>
			</g>
		</g>
	</g>
</g>
<text transform="matrix(1 0 0 1 -98.1962 98.8677)" class="st4 st5">V</text>
<text transform="matrix(0.583 0 0 0.583 -93.5166 101.0255)" class="st4 st5">1</text>
<text id="XMLID_43_" transform="matrix(1 0 0 1 -101.1311 106.8677)" class="st4 st5">20 V</text>
<text id="XMLID_29_" transform="matrix(1 0 0 1 6.8689 129.8678)" class="st4 st5">300 V</text>
<text transform="matrix(1 0 0 1 -98.1314 71.0044)" class="st4 st5">R</text>
<text transform="matrix(0.583 0 0 0.583 -93.8092 73.1621)" class="st4 st5">1</text>
<text id="XMLID_104_" transform="matrix(1 0 0 1 177.6666 91.0044)" class="st4 st5">a</text>
<text id="XMLID_105_" transform="matrix(1 0 0 1 177.6665 154.8333)" class="st4 st5">b</text>
<text id="XMLID_47_" transform="matrix(1 0 0 1 -101.7144 79.0044)" class="st4 st5">20 Ω</text>
<text id="XMLID_32_" transform="matrix(1 0 0 1 75.0356 127.9419)" class="st4 st5">8 Ω</text>
<text id="XMLID_31_" transform="matrix(1 0 0 1 88.5356 49.0044)" class="st4 st5">150 Ω</text>
<text id="XMLID_30_" transform="matrix(1 0 0 1 50.2856 85.5044)" class="st4 st5">40 Ω</text>
<text id="XMLID_33_" transform="matrix(1 0 0 1 128.5356 85.5043)" class="st4 st5">10 Ω</text>
<text transform="matrix(1 0 0 1 -97.1461 123.8677)" class="st4 st5">i</text>
<text transform="matrix(0.583 0 0 0.583 -95.3458 126.0255)" class="st4 st5">1</text>
<text id="XMLID_13_" transform="matrix(1 0 0 1 -101.4129 131.8677)" class="st4 st5">20 A</text>
<text id="XMLID_34_" transform="matrix(1 0 0 1 89.5871 10.3677)" class="st4 st5">3 A</text>
<g id="XMLID_74_">
	<line id="XMLID_79_" x1="-99.5" y1="45.7" x2="-99.5" y2="37.3"/>
	<g id="XMLID_75_">
		<line id="XMLID_78_" class="st6" x1="-99.5" y1="45.7" x2="-99.5" y2="38.7"/>
		<g id="XMLID_76_">
			<polygon id="XMLID_77_" class="st3" points="-98.5,39 -99.5,37.3 -100.5,39 			"/>
		</g>
	</g>
</g>
<g id="XMLID_18_">
	<g id="XMLID_55_">
		<line id="XMLID_59_" class="st2" x1="96.4" y1="157.7" x2="176.8" y2="157.7"/>
		<g id="XMLID_56_">
			<circle id="XMLID_57_" class="st3" cx="176.7" cy="157.7" r="0.9"/>
		</g>
	</g>
</g>
</svg>
