<?xml version="1.0" encoding="utf-8"?>
<!-- Generator: Adobe Illustrator 19.0.0, SVG Export Plug-In . SVG Version: 6.00 Build 0)  -->
<svg version="1.1" id="Layer_1" xmlns="http://www.w3.org/2000/svg" xmlns:xlink="http://www.w3.org/1999/xlink" x="0px" y="0px"
	 viewBox="0 0 213.3 97" style="enable-background:new 0 0 213.3 97;" xml:space="preserve">
<style type="text/css">
	.st0{fill:none;stroke:#231F20;stroke-linecap:round;stroke-linejoin:round;stroke-miterlimit:10;}
	.st1{fill:none;stroke:#231F20;stroke-linecap:square;stroke-linejoin:round;stroke-miterlimit:10;}
	.st2{fill:none;stroke:#231F20;stroke-linecap:round;stroke-linejoin:round;}
	.st3{fill:#231F20;}
	.st4{font-family:'TimesNewRomanPSMT';}
	.st5{font-size:6.48px;}
	.st6{fill:#FFFFFF;stroke:#231F20;stroke-miterlimit:10;}
	.st7{fill:#FFFFFF;}
	.st8{fill:none;stroke:#231F20;stroke-miterlimit:10;}
	.st9{font-size:10.44px;}
	.st10{font-size:6px;}
</style>
<path id="XMLID_12_" class="st0" d="M-111.4,33c0.6,0,1.1,0,1.7,0c0.5,0,1.1,0,1.6,0c0.5-1.6,1.1-3.2,1.6-4.8
	c1.1,3.2,2.2,6.5,3.2,9.7c1.1-3.3,2.2-6.5,3.3-9.8c1.1,3.2,2.1,6.4,3.2,9.7c1.1-3.2,2.2-6.5,3.2-9.7c1.1,3.3,2.2,6.5,3.3,9.8
	c0.5-1.6,1.1-3.2,1.6-4.8c1.1,0,2.1,0,3.2,0"/>
<path id="XMLID_58_" class="st0" d="M-107.5,116c0,0.6,0,1.1,0,1.7c0,0.5,0,1.1,0,1.6c1.6,0.5,3.2,1.1,4.8,1.6
	c-3.2,1.1-6.5,2.2-9.7,3.2c3.3,1.1,6.5,2.2,9.8,3.3c-3.2,1.1-6.4,2.1-9.7,3.2c3.2,1.1,6.5,2.2,9.7,3.2c-3.3,1.1-6.5,2.2-9.8,3.3
	c1.6,0.5,3.2,1.1,4.8,1.6c0,1.1,0,2.1,0,3.2"/>
<g id="XMLID_35_">
	<path id="XMLID_2_" class="st0" d="M-113.3,69.6c4.9,0.1,9,4.1,9,9c0,5-4.1,9.2-9.1,9.1c-4.9,0-9.1-4.1-9.1-9.1
		C-122.5,73.6-118.3,69.5-113.3,69.6z"/>
	<path id="XMLID_3_" class="st1" d="M-115.2,74.4c1.2,0,2.4,0,3.6,0"/>
	<path id="XMLID_4_" class="st1" d="M-115.2,83.8c1.2,0,2.4,0,3.6,0"/>
	<path id="XMLID_5_" class="st1" d="M-113.4,72.6c0,1.2,0,2.4,0,3.6"/>
	<path id="XMLID_6_" class="st0" d="M-113.4,69.5c0-1.6,0-3.2,0-4.8"/>
	<path id="XMLID_7_" class="st0" d="M-113.4,87.9c0,1.4,0,2.8,0,4.3"/>
</g>
<g id="XMLID_37_">
	<path id="XMLID_46_" class="st0" d="M136.6,41.7c4.9,0.1,9,4.1,9,9c0,5-4.1,9.2-9.1,9.1c-4.9,0-9.1-4.1-9.1-9.1
		C127.4,45.7,131.6,41.6,136.6,41.7z"/>
	<path id="XMLID_45_" class="st1" d="M134.7,46.5c1.2,0,2.4,0,3.6,0"/>
	<path id="XMLID_44_" class="st1" d="M134.7,55.9c1.2,0,2.4,0,3.6,0"/>
	<path id="XMLID_42_" class="st1" d="M136.5,44.7c0,1.2,0,2.4,0,3.6"/>
	<g id="XMLID_33_">
		<g id="XMLID_77_">
			<path id="XMLID_80_" class="st2" d="M136.5,41.6c0-1.6,0-3.2,0-4.8V18.3l18.8,0c0.5,0,1.1,0,1.7,0c0.5,0,1.1,0,1.6,0
				c0.5-1.6,1.1-3.2,1.6-4.8c1.1,3.2,2.2,6.5,3.2,9.7c1.1-3.3,2.2-6.5,3.3-9.8c1.1,3.2,2.1,6.4,3.2,9.7c1.1-3.2,2.2-6.5,3.2-9.7
				c1.1,3.3,2.2,6.5,3.3,9.8c0.5-1.6,1.1-3.2,1.6-4.8c1.1,0,2.1,0,3.2,0h18.1"/>
			<g id="XMLID_78_">
				<circle id="XMLID_79_" class="st3" cx="199.3" cy="18.3" r="0.9"/>
			</g>
		</g>
	</g>
	<g id="XMLID_38_">
		<g id="XMLID_82_">
			<path id="XMLID_85_" class="st2" d="M136.5,60c0,1.4,0,2.8,0,4.3v17h62.9"/>
			<g id="XMLID_83_">
				<circle id="XMLID_84_" class="st3" cx="199.3" cy="81.3" r="0.9"/>
			</g>
		</g>
	</g>
</g>
<g id="XMLID_11_">
	<path id="XMLID_14_" class="st0" d="M-85.3,50.6c4.9,0.1,9,4.1,9,9c0,5-4.1,9.2-9.1,9.1c-4.9,0-9.1-4.1-9.1-9.1
		C-94.5,54.6-90.3,50.5-85.3,50.6z"/>
	<path id="XMLID_10_" class="st0" d="M-85.4,50.6c0-1.6,0-3.2,0-4.8"/>
	<path id="XMLID_9_" class="st0" d="M-85.4,68.9c0,1.4,0,2.8,0,4.3"/>
	<g id="XMLID_8_">
		<g id="XMLID_125_">
			<line id="XMLID_128_" class="st2" x1="-85.4" y1="64.8" x2="-85.4" y2="56.2"/>
			<g id="XMLID_126_">
				<polygon id="XMLID_127_" class="st3" points="-83.1,56.9 -85.4,53 -87.6,56.9 				"/>
			</g>
		</g>
	</g>
</g>
<text transform="matrix(1 0 0 1 -64.3424 112.8547)" class="st4 st5">V</text>
<text transform="matrix(0.583 0 0 0.583 -59.6627 115.0124)" class="st4 st5">1</text>
<text transform="matrix(1 0 0 1 114.991 50.0002)" class="st4 st5">V</text>
<text transform="matrix(0.583 0 0 0.583 119.6706 52.1579)" class="st4 st5">TH</text>
<text id="XMLID_106_" transform="matrix(1 0 0 1 202.491 19.5002)" class="st4 st5">a</text>
<text id="XMLID_107_" transform="matrix(1 0 0 1 202.4907 82.2502)" class="st4 st5">b</text>
<text id="XMLID_43_" transform="matrix(1 0 0 1 -67.349 120.8547)" class="st4 st5">20 V</text>
<text transform="matrix(1 0 0 1 -64.1638 84.9913)" class="st4 st5">R</text>
<text transform="matrix(0.583 0 0 0.583 -59.8415 87.149)" class="st4 st5">1</text>
<text transform="matrix(1 0 0 1 164.2498 9.9913)" class="st4 st5">R</text>
<text transform="matrix(0.583 0 0 0.583 168.5721 12.149)" class="st4 st5">TH</text>
<text id="XMLID_47_" transform="matrix(1 0 0 1 -67.5161 92.9913)" class="st4 st5">20 Ω</text>
<text transform="matrix(1 0 0 1 -62.9031 137.8547)" class="st4 st5">i</text>
<text transform="matrix(0.583 0 0 0.583 -61.1028 140.0124)" class="st4 st5">1</text>
<text id="XMLID_13_" transform="matrix(1 0 0 1 -67.2321 145.8547)" class="st4 st5">20 A</text>
<rect id="XMLID_15_" x="8.3" y="35.3" class="st6" width="36" height="27.5"/>
<g id="XMLID_17_">
	<line id="XMLID_54_" class="st7" x1="62.5" y1="35.3" x2="44.3" y2="35.3"/>
	<g id="XMLID_50_">
		<line id="XMLID_53_" class="st8" x1="61.6" y1="35.3" x2="44.3" y2="35.3"/>
		<g id="XMLID_51_">
			<circle id="XMLID_52_" class="st3" cx="61.6" cy="35.3" r="0.9"/>
		</g>
	</g>
</g>
<g id="XMLID_18_">
	<line id="XMLID_61_" class="st7" x1="62.5" y1="62.8" x2="44.3" y2="62.8"/>
	<g id="XMLID_56_">
		<line id="XMLID_60_" class="st8" x1="61.6" y1="62.8" x2="44.3" y2="62.8"/>
		<g id="XMLID_57_">
			<circle id="XMLID_59_" class="st3" cx="61.6" cy="62.8" r="0.9"/>
		</g>
	</g>
</g>
<text id="XMLID_16_" transform="matrix(1 0 0 1 12 51.9799)" class="st4 st9">Circuit</text>
<text id="XMLID_19_" transform="matrix(1 0 0 1 65.5 35.25)" class="st4 st10">a</text>
<text id="XMLID_34_" transform="matrix(1 0 0 1 65.5 63.7824)" class="st4 st10">b</text>
<g id="XMLID_36_">
	<line id="XMLID_68_" x1="79.8" y1="49" x2="107.3" y2="49"/>
	<g id="XMLID_64_">
		<line id="XMLID_67_" class="st8" x1="79.8" y1="49" x2="101.2" y2="49"/>
		<g id="XMLID_65_">
			<path id="XMLID_66_" class="st3" d="M107.3,49c-2.8,1.1-6.4,2.9-8.5,4.8l1.7-4.8l-1.7-4.8C100.9,46.1,104.4,47.9,107.3,49z"/>
		</g>
	</g>
</g>
</svg>
