<?xml version="1.0" encoding="utf-8"?>
<!-- Generator: Adobe Illustrator 19.0.0, SVG Export Plug-In . SVG Version: 6.00 Build 0)  -->
<svg version="1.1" id="Layer_1" xmlns="http://www.w3.org/2000/svg" xmlns:xlink="http://www.w3.org/1999/xlink" x="0px" y="0px"
	 viewBox="-186.5 355 158.5 126" style="enable-background:new -186.5 355 158.5 126;" xml:space="preserve">
<style type="text/css">
	.st0{fill:none;stroke:#231F20;stroke-linecap:round;stroke-linejoin:round;stroke-miterlimit:10;}
	.st1{fill:none;stroke:#231F20;stroke-linecap:square;stroke-linejoin:round;stroke-miterlimit:10;}
	.st2{fill:none;stroke:#231F20;stroke-linecap:round;stroke-linejoin:round;}
	.st3{fill:#231F20;}
	.st4{font-family:'TimesNewRomanPSMT';}
	.st5{font-size:6.48px;}
	.st6{fill:none;}
	.st7{fill:none;stroke:#231F20;stroke-width:0.5;stroke-miterlimit:10;}
</style>
<path id="XMLID_12_" class="st0" d="M-358.5,332.6c0.6,0,1.1,0,1.7,0c0.5,0,1.1,0,1.6,0c0.5-1.6,1.1-3.2,1.6-4.8
	c1.1,3.2,2.2,6.5,3.2,9.7c1.1-3.3,2.2-6.5,3.3-9.8c1.1,3.2,2.1,6.4,3.2,9.7c1.1-3.2,2.2-6.5,3.2-9.7c1.1,3.3,2.2,6.5,3.3,9.8
	c0.5-1.6,1.1-3.2,1.6-4.8c1.1,0,2.1,0,3.2,0"/>
<path id="XMLID_24_" class="st0" d="M-179.1,407.5v-37h49.5c0.6,0,1.1,0,1.7,0c0.5,0,1.1,0,1.6,0c0.5-1.6,1.1-3.2,1.6-4.8
	c1.1,3.2,2.2,6.5,3.2,9.7c1.1-3.3,2.2-6.5,3.3-9.8c1.1,3.2,2.1,6.4,3.2,9.7c1.1-3.2,2.2-6.5,3.2-9.7c1.1,3.3,2.2,6.5,3.3,9.8
	c0.5-1.6,1.1-3.2,1.6-4.8c1.1,0,2.1,0,3.2,0H-44v36.9"/>
<path id="XMLID_58_" class="st0" d="M-354.5,415.5c0,0.6,0,1.1,0,1.7c0,0.5,0,1.1,0,1.6c1.6,0.5,3.2,1.1,4.8,1.6
	c-3.2,1.1-6.5,2.2-9.7,3.2c3.3,1.1,6.5,2.2,9.8,3.3c-3.2,1.1-6.4,2.1-9.7,3.2c3.2,1.1,6.5,2.2,9.7,3.2c-3.3,1.1-6.5,2.2-9.8,3.3
	c1.6,0.5,3.2,1.1,4.8,1.6c0,1.1,0,2.1,0,3.2"/>
<g id="XMLID_35_">
	<path id="XMLID_2_" class="st0" d="M-360.3,369.1c4.9,0.1,9,4.1,9,9c0,5-4.1,9.2-9.1,9.1c-4.9,0-9.1-4.1-9.1-9.1
		S-365.3,369-360.3,369.1z"/>
	<path id="XMLID_3_" class="st1" d="M-362.2,373.9c1.2,0,2.4,0,3.6,0"/>
	<path id="XMLID_4_" class="st1" d="M-362.2,383.3c1.2,0,2.4,0,3.6,0"/>
	<path id="XMLID_5_" class="st1" d="M-360.4,372.1c0,1.2,0,2.4,0,3.6"/>
	<path id="XMLID_6_" class="st0" d="M-360.4,369c0-1.6,0-3.2,0-4.8"/>
	<path id="XMLID_7_" class="st0" d="M-360.4,387.4c0,1.4,0,2.8,0,4.3"/>
</g>
<g id="XMLID_16_">
	<path id="XMLID_67_" class="st0" d="M-179,432.6"/>
	<path id="XMLID_22_" class="st1" d="M-180.9,437.4"/>
	<path id="XMLID_19_" class="st1" d="M-180.9,446.8"/>
	<path id="XMLID_68_" class="st1" d="M-179.1,439.2"/>
	<path id="XMLID_66_" class="st1" d="M-179.1,435.6"/>
	<g id="XMLID_15_">
		<g id="XMLID_42_">
			<path id="XMLID_20_" class="st2" d="M-179.1,450.7v-18.2c0-1.6,0-3.2,0-4.8v-20.2h12.5c0.6,0,1.1,0,1.7,0c0.5,0,1.1,0,1.6,0
				c0.5-1.6,1.1-3.2,1.6-4.8c1.1,3.2,2.2,6.5,3.2,9.7c1.1-3.3,2.2-6.5,3.3-9.8c1.1,3.2,2.1,6.4,3.2,9.7c1.1-3.2,2.2-6.5,3.2-9.7
				c1.1,3.3,2.2,6.5,3.3,9.8c0.5-1.6,1.1-3.2,1.6-4.8c1.1,0,2.1,0,3.2,0l51.7-0.1c0.6,0,1.1,0,1.7,0c0.5,0,1.1,0,1.6,0
				c0.5-1.6,1.1-3.2,1.6-4.8c1.1,3.2,2.2,6.5,3.2,9.7c1.1-3.3,2.2-6.5,3.3-9.8c1.1,3.2,2.1,6.4,3.2,9.7c1.1-3.2,2.2-6.5,3.2-9.7
				c1.1,3.3,2.2,6.5,3.3,9.8c0.5-1.6,1.1-3.2,1.6-4.8c1.1,0,2.1,0,3.2,0h26.8"/>
			<g id="XMLID_44_">
				<circle id="XMLID_45_" class="st3" cx="-36.3" cy="407.5" r="0.9"/>
			</g>
		</g>
	</g>
	<path id="XMLID_23_" class="st0" d="M-116.6,407.5v18.7c0,0.6,0,1.1,0,1.7c0,0.5,0,1.1,0,1.6c1.6,0.5,3.2,1.1,4.8,1.6
		c-3.2,1.1-6.5,2.2-9.7,3.2c3.3,1.1,6.5,2.2,9.8,3.3c-3.2,1.1-6.4,2.1-9.7,3.2c3.2,1.1,6.5,2.2,9.7,3.2c-3.3,1.1-6.5,2.2-9.8,3.3
		c1.6,0.5,3.2,1.1,4.8,1.6c0,1.1,0,2.1,0,3.2v19h-62.4V455c0-1.4,0-2.8,0-4.3"/>
</g>
<g id="XMLID_11_">
	<path id="XMLID_14_" class="st0" d="M-332.3,350.1c4.9,0.1,9,4.1,9,9c0,5-4.1,9.2-9.1,9.1c-4.9,0-9.1-4.1-9.1-9.1
		C-341.5,354.2-337.3,350.1-332.3,350.1z"/>
	<path id="XMLID_10_" class="st0" d="M-332.4,350.1c0-1.6,0-3.2,0-4.8"/>
	<path id="XMLID_9_" class="st0" d="M-332.4,368.4c0,1.4,0,2.8,0,4.3"/>
	<g id="XMLID_8_">
		<g id="XMLID_184_">
			<line id="XMLID_187_" class="st2" x1="-332.4" y1="364.3" x2="-332.4" y2="355.7"/>
			<g id="XMLID_185_">
				<polygon id="XMLID_186_" class="st3" points="-330.2,356.4 -332.4,352.5 -334.7,356.4 				"/>
			</g>
		</g>
	</g>
</g>
<g id="XMLID_27_">
	<path id="XMLID_17_" class="st0" d="M-44,370.6"/>
	<path id="XMLID_21_" class="st0" d="M-179.1,372.1"/>
</g>
<text transform="matrix(1 0 0 1 -311.1962 412.3677)" class="st4 st5">V</text>
<text transform="matrix(1 0 0 1 -306.5164 414.5255)" class="st4" style="font-size:3.7778px;">1</text>
<text id="XMLID_43_" transform="matrix(1 0 0 1 -314.1311 420.3677)" class="st4 st5">20 V</text>
<text transform="matrix(1 0 0 1 -311.1314 384.5044)" class="st4 st5">R</text>
<text transform="matrix(1 0 0 1 -306.809 386.6622)" class="st4" style="font-size:3.7778px;">1</text>
<text id="XMLID_104_" transform="matrix(1 0 0 1 -35.3334 404.5044)" class="st4 st5">a</text>
<text id="XMLID_105_" transform="matrix(1 0 0 1 -35.3335 468.3333)" class="st4 st5">b</text>
<text id="XMLID_47_" transform="matrix(1 0 0 1 -314.7144 392.5044)" class="st4 st5">20 Ω</text>
<text id="XMLID_32_" transform="matrix(1 0 0 1 -137.9644 441.4419)" class="st4 st5">8 Ω</text>
<text id="XMLID_31_" transform="matrix(1 0 0 1 -124.4644 362.5044)" class="st4 st5">150 Ω</text>
<text id="XMLID_30_" transform="matrix(1 0 0 1 -162.7144 399.0044)" class="st4 st5">40 Ω</text>
<text id="XMLID_33_" transform="matrix(1 0 0 1 -84.4644 399.0043)" class="st4 st5">10 Ω</text>
<text transform="matrix(1 0 0 1 -310.1461 437.3677)" class="st4 st5">i</text>
<text transform="matrix(1 0 0 1 -308.3456 439.5256)" class="st4" style="font-size:3.7778px;">1</text>
<text id="XMLID_13_" transform="matrix(1 0 0 1 -314.4129 445.3677)" class="st4 st5">20 A</text>
<g id="XMLID_74_">
	<line id="XMLID_79_" class="st6" x1="-312.5" y1="359.2" x2="-312.5" y2="350.8"/>
	<g id="XMLID_75_">
		<line id="XMLID_78_" class="st7" x1="-312.5" y1="359.2" x2="-312.5" y2="352.2"/>
		<g id="XMLID_76_">
			<polygon id="XMLID_77_" class="st3" points="-311.5,352.5 -312.5,350.8 -313.5,352.5 			"/>
		</g>
	</g>
</g>
<g id="XMLID_18_">
	<g id="XMLID_55_">
		<line id="XMLID_59_" class="st2" x1="-116.6" y1="471.2" x2="-36.2" y2="471.2"/>
		<g id="XMLID_56_">
			<circle id="XMLID_57_" class="st3" cx="-36.3" cy="471.2" r="0.9"/>
		</g>
	</g>
</g>
</svg>
