<?xml version="1.0" encoding="utf-8"?>
<!-- Generator: Adobe Illustrator 19.0.0, SVG Export Plug-In . SVG Version: 6.00 Build 0)  -->
<svg version="1.1" id="Layer_1" xmlns="http://www.w3.org/2000/svg" xmlns:xlink="http://www.w3.org/1999/xlink" x="0px" y="0px"
	 viewBox="0 0 131.3 89.8" style="enable-background:new 0 0 131.3 89.8;" xml:space="preserve">
<style type="text/css">
	.st0{fill:none;stroke:#231F20;stroke-linecap:round;stroke-linejoin:round;stroke-miterlimit:10;}
	.st1{fill:none;stroke:#231F20;stroke-linecap:square;stroke-linejoin:round;stroke-miterlimit:10;}
	.st2{font-family:'TimesNewRomanPSMT';}
	.st3{font-size:6.48px;}
	.st4{fill:none;stroke:#231F20;stroke-width:0.5;stroke-miterlimit:10;}
	.st5{fill:#231F20;}
</style>
<g id="XMLID_16_">
	<path id="XMLID_22_" class="st0" d="M25.2,48c4.9,0.1,9,4.1,9,9c0,5-4.1,9.2-9.1,9.1C20.1,66.1,16,62,16,57
		C16,52,20.2,47.9,25.2,48z"/>
	<path id="XMLID_21_" class="st1" d="M23.3,52.8c1.2,0,2.4,0,3.6,0"/>
	<path id="XMLID_20_" class="st1" d="M23.3,62.1c1.2,0,2.4,0,3.6,0"/>
	<path id="XMLID_19_" class="st1" d="M25.1,51c0,1.2,0,2.4,0,3.6"/>
	<path id="XMLID_12_" class="st0" d="M25.1,47.9c0-1.6,0-3.2,0-4.8V20.2l19.2,0c0.6,0,1.1,0,1.7,0c0.5,0,1.1,0,1.6,0
		c0.5-1.6,1.1-3.2,1.6-4.8c1.1,3.2,2.2,6.5,3.2,9.7c1.1-3.3,2.2-6.5,3.3-9.8c1.1,3.2,2.1,6.4,3.2,9.7c1.1-3.2,2.2-6.5,3.2-9.7
		c1.1,3.3,2.2,6.5,3.3,9.8c0.5-1.6,1.1-3.2,1.6-4.8c1.1,0,2.1,0,3.2,0l17.8-0.1c0.6,0,1.1,0,1.7,0c0.5,0,1.1,0,1.6,0
		c0.5-1.6,1.1-3.2,1.6-4.8c1.1,3.2,2.2,6.5,3.2,9.7c1.1-3.3,2.2-6.5,3.3-9.8c1.1,3.2,2.1,6.4,3.2,9.7c1.1-3.2,2.2-6.5,3.2-9.7
		c1.1,3.3,2.2,6.5,3.3,9.8c0.5-1.6,1.1-3.2,1.6-4.8c1.1,0,2.1,0,3.2,0H125v64.1H25.1V70.5c0-1.4,0-2.8,0-4.3"/>
</g>
<text transform="matrix(1 0 0 1 4.9004 57.0234)" class="st2 st3">V</text>
<text transform="matrix(0.583 0 0 0.583 9.58 59.1811)" class="st2 st3">1</text>
<text transform="matrix(1 0 0 1 54.6318 10.2022)" class="st2 st3">R</text>
<text transform="matrix(0.583 0 0 0.583 58.9541 12.3599)" class="st2 st3">1</text>
<text transform="matrix(1 0 0 1 54.6317 10.2023)" class="st2 st3">R</text>
<text transform="matrix(0.583 0 0 0.583 58.954 12.3601)" class="st2 st3">1</text>
<text transform="matrix(1 0 0 1 98.2985 10.2024)" class="st2 st3">R</text>
<text transform="matrix(0.583 0 0 0.583 102.6208 12.3602)" class="st2 st3">2</text>
<text id="XMLID_40_" transform="matrix(1 0 0 1 15.0247 36.0415)" class="st2 st3">i</text>
<g id="XMLID_74_">
	<line id="XMLID_70_" x1="19.3" y1="38.5" x2="19.3" y2="30.2"/>
	<g id="XMLID_43_">
		<line id="XMLID_58_" class="st4" x1="19.3" y1="38.5" x2="19.3" y2="31.6"/>
		<g id="XMLID_47_">
			<polygon id="XMLID_48_" class="st5" points="20.3,31.9 19.3,30.2 18.3,31.9 			"/>
		</g>
	</g>
</g>
</svg>
