<?xml version="1.0" encoding="utf-8"?>
<!-- Generator: Adobe Illustrator 19.0.0, SVG Export Plug-In . SVG Version: 6.00 Build 0)  -->
<svg version="1.1" id="Layer_1" xmlns="http://www.w3.org/2000/svg" xmlns:xlink="http://www.w3.org/1999/xlink" x="0px" y="0px"
	 viewBox="0 0 612 792" style="enable-background:new 0 0 612 792;" xml:space="preserve">
<style type="text/css">
	.st0{fill:none;stroke:#231F20;stroke-linecap:round;stroke-linejoin:round;stroke-miterlimit:10;}
</style>
<path id="XMLID_1_" class="st0" d="M113.3,45.1c0.9,0,1.8,0,2.8,0c0.9,0,1.8,0,2.7,0c0.9-1.8,1.8-3.6,2.7-5.4
	c1.8,3.6,3.6,7.2,5.4,10.8c1.8-3.6,3.6-7.3,5.4-10.9c1.8,3.6,3.6,7.2,5.4,10.7c1.8-3.6,3.6-7.2,5.4-10.8c1.8,3.6,3.6,7.3,5.4,10.9
	c0.9-1.8,1.8-3.6,2.7-5.4c1.8,0,3.6,0,5.4,0"/>
</svg>
