<?xml version="1.0" encoding="utf-8"?>
<!-- Generator: Adobe Illustrator 19.0.0, SVG Export Plug-In . SVG Version: 6.00 Build 0)  -->
<svg version="1.1" id="Layer_1" xmlns="http://www.w3.org/2000/svg" xmlns:xlink="http://www.w3.org/1999/xlink" x="0px" y="0px"
	 viewBox="0 0 612 792" style="enable-background:new 0 0 612 792;" xml:space="preserve">
<style type="text/css">
	.st0{fill:none;stroke:#231F20;stroke-linecap:round;stroke-linejoin:round;stroke-miterlimit:10;}
	.st1{fill:none;stroke:#231F20;stroke-linecap:square;stroke-linejoin:round;stroke-miterlimit:10;}
</style>
<g id="XMLID_1_">
	<path id="XMLID_2_" class="st0" d="M28.2,52.2c4.9,0.1,9,4.1,9,9c0,5-4.1,9.2-9.1,9.1c-4.9,0-9.1-4.1-9.1-9.1
		C19,56.3,23.2,52.2,28.2,52.2z"/>
	<path id="XMLID_3_" class="st1" d="M26.3,57c1.2,0,2.4,0,3.6,0"/>
	<path id="XMLID_4_" class="st1" d="M26.3,66.4c1.2,0,2.4,0,3.6,0"/>
	<path id="XMLID_5_" class="st1" d="M28.1,55.3c0,1.2,0,2.4,0,3.6"/>
	<path id="XMLID_6_" class="st0" d="M28.1,52.2c0-1.6,0-3.2,0-4.8"/>
	<path id="XMLID_7_" class="st0" d="M28.1,70.5c0,1.4,0,2.8,0,4.3"/>
</g>
</svg>
